<svg xmlns="http://www.w3.org/2000/svg" width="1170" height="1004" fill="none"><path fill="url(#a)" fill-rule="evenodd" d="M-115.446-236.599c.072.494.072.494.074.494l.008-.001.033-.005.136-.018c.122-.016.306-.038.552-.066.491-.055 1.228-.13 2.209-.207 1.96-.155 4.89-.319 8.759-.355 7.74-.074 19.236.361 34.244 2.399 30.014 4.075 74.077 14.562 130.219 40.217 112.282 51.31 272.89 163.298 466.044 406.035 193.227 242.829 353.954 354.931 466.411 406.321 56.227 25.695 100.387 36.21 130.497 40.299 15.06 2.044 26.6 2.482 34.39 2.408 3.89-.037 6.85-.202 8.83-.358.56-.044 1.04-.088 1.45-.127a42.728 42.728 0 0 0 1.36-.152l.14-.019.04-.005.01-.001-.07-.496c-.04-.28-.06-.401-.06-.454l-.01-.04-.01.001-.03.005-.14.018-.13.016-.42.05c-.49.055-1.23.13-2.21.207-1.96.154-4.89.318-8.76.355-7.74.074-19.24-.361-34.24-2.399-30.02-4.076-74.08-14.563-130.222-40.217-112.282-51.31-272.89-163.299-466.044-406.035C334.387-31.558 173.66-143.66 61.204-195.05c-56.23-25.695-100.387-36.21-130.5-40.299-15.057-2.044-26.602-2.482-34.388-2.408-3.893.037-6.846.202-8.829.358-.991.078-1.74.154-2.242.21a34.93 34.93 0 0 0-.568.069l-.145.019-.037.005-.01.001c-.002.001-.003.001.069.496Zm-6.688 9.565c-.001.001-.002.001-.074-.494s-.071-.495-.068-.495l.01-.002.037-.005.144-.019a66.063 66.063 0 0 1 2.81-.279c1.983-.156 4.936-.321 8.829-.358 7.786-.074 19.331.364 34.388 2.408 30.113 4.089 74.27 14.604 130.5 40.299 112.457 51.39 273.183 163.493 466.41 406.321 193.154 242.737 353.762 354.725 466.045 406.035 56.143 25.655 100.203 36.142 130.223 40.217 15 2.038 26.5 2.473 34.24 2.399 3.87-.036 6.8-.2 8.76-.355a67.142 67.142 0 0 0 2.63-.257l.13-.016.09-.012.05-.006.03-.005.01-.001v.047c.01.056.03.179.07.447l.07.496-.01.001-.04.005-.14.02c-.13.016-.32.04-.57.068-.5.056-1.25.132-2.24.21-1.99.156-4.94.321-8.83.358-7.79.075-19.33-.363-34.39-2.408-30.11-4.089-74.27-14.604-130.499-40.299-112.457-51.389-273.184-163.492-466.411-406.321C326.916-21.771 166.308-133.76 54.026-185.069c-56.141-25.655-100.204-36.142-130.22-40.218-15.007-2.038-26.503-2.473-34.242-2.399-3.87.037-6.8.201-8.76.355-.98.077-1.718.152-2.209.207a33.072 33.072 0 0 0-.688.085l-.033.004-.008.001Zm-6.835 8.577c.072.494.073.494.074.494l.008-.001.033-.005.085-.011.052-.007c.122-.015.306-.038.551-.066.491-.055 1.229-.13 2.209-.207 1.96-.154 4.891-.318 8.76-.355 7.739-.074 19.236.361 34.243 2.399 30.015 4.076 74.078 14.563 130.22 40.217 112.281 51.31 272.889 163.298 466.043 406.035C706.537 472.865 867.263 584.967 979.72 636.357c56.23 25.695 100.39 36.21 130.5 40.299 15.06 2.044 26.6 2.482 34.39 2.408 3.89-.037 6.84-.202 8.83-.358a68.91 68.91 0 0 0 2.54-.246l.27-.033.14-.019.04-.005.01-.001-.07-.496-.07-.494-.01.001-.04.005-.13.018-.13.016-.42.05c-.49.055-1.23.13-2.21.207-1.96.154-4.89.318-8.76.355-7.74.074-19.24-.361-34.25-2.399-30.01-4.076-74.07-14.563-130.214-40.217-112.282-51.31-272.89-163.298-466.044-406.035C320.864-13.416 160.138-125.518 47.681-176.908c-56.229-25.695-100.387-36.21-130.5-40.299-15.057-2.044-26.601-2.482-34.387-2.408-3.893.037-6.847.202-8.829.358-.992.078-1.74.154-2.243.21-.251.029-.44.052-.568.069l-.067.008-.077.011-.037.005-.01.001c-.002.001-.004.001.068.496Zm-6.687 9.565c-.002 0-.002 0-.074-.494-.073-.495-.071-.495-.069-.496l.01-.001.037-.005.145-.02a54.398 54.398 0 0 1 2.81-.278c1.983-.156 4.936-.321 8.829-.358 7.786-.074 19.33.363 34.387 2.408 30.114 4.089 74.271 14.604 130.5 40.299C153.376-116.448 314.103-4.345 507.33 238.484 700.484 481.22 861.092 593.209 973.374 644.518c56.146 25.655 100.206 36.142 130.216 40.218 15.01 2.038 26.51 2.473 34.25 2.399 3.87-.037 6.8-.201 8.76-.355.98-.077 1.71-.152 2.2-.207l.43-.05.13-.016.13-.019.04-.004v-.001c.01-.001.01-.001.08.494.04.306.06.423.06.467l.01.028-.01.002-.04.005-.15.019a21.658 21.658 0 0 1-.79.093l-.26.028c-.12.012-.24.025-.38.037-.39.038-.85.079-1.38.121-1.98.156-4.93.321-8.82.358-7.79.074-19.34-.364-34.39-2.408-30.12-4.089-74.27-14.604-130.502-40.299-112.457-51.39-273.183-163.493-466.411-406.321C313.394-3.63 152.785-115.618 40.503-166.928-15.637-192.583-59.7-203.07-89.716-207.145c-15.007-2.038-26.504-2.473-34.243-2.399-3.869.036-6.799.2-8.76.355-.98.077-1.717.152-2.209.207-.245.028-.429.05-.551.066l-.136.018-.034.005-.007.001Zm-6.835 8.576c.072.495.072.495.074.495l.008-.001.033-.005.059-.008.077-.01a66.682 66.682 0 0 1 2.761-.274c1.96-.154 4.89-.318 8.76-.355 7.739-.073 19.235.362 34.243 2.4 30.014 4.075 74.078 14.562 130.219 40.217 112.282 51.31 272.89 163.298 466.044 406.034 193.227 242.829 353.954 354.932 466.411 406.322 56.232 25.695 100.382 36.21 130.502 40.299 15.05 2.044 26.6 2.482 34.38 2.408 3.9-.037 6.85-.202 8.83-.358.48-.038.9-.075 1.27-.11a50.34 50.34 0 0 0 1.54-.169l.15-.019.04-.005.01-.002-.01-.021v-.012c0-.031-.01-.09-.03-.204l-.03-.258-.08-.495v.002l-.04.004-.13.018-.13.016-.26.032-.17.018c-.49.056-1.22.131-2.2.208-1.96.154-4.9.318-8.76.355-7.74.073-19.24-.361-34.25-2.399-30.01-4.076-74.08-14.563-130.217-40.218-112.282-51.31-272.89-163.298-466.044-406.034C307.342 4.726 146.615-107.377 34.159-158.766c-56.23-25.695-100.387-36.21-130.5-40.299-15.057-2.045-26.602-2.483-34.388-2.409-3.893.037-6.846.202-8.829.359-.991.078-1.74.154-2.242.21-.251.028-.441.052-.568.068l-.077.01-.067.009-.038.006-.009.001c-.003 0-.004.001.068.495Zm-6.689 9.566c-.001 0-.002 0-.074-.494-.072-.495-.071-.495-.068-.496l.01-.001.037-.005.144-.02c.128-.016.317-.039.568-.068a69.433 69.433 0 0 1 2.242-.21c1.983-.156 4.936-.321 8.829-.358 7.786-.074 19.331.364 34.388 2.408 30.113 4.089 74.27 14.604 130.5 40.299 112.457 51.39 273.183 163.492 466.41 406.321C686.96 499.363 847.568 611.351 959.851 662.661c56.139 25.654 100.199 36.141 130.219 40.217 15.01 2.038 26.5 2.473 34.24 2.399 3.87-.037 6.8-.201 8.76-.355.98-.077 1.72-.152 2.21-.207l.2-.023.14-.017.09-.01.12-.016.08-.011.06-.008.03-.004.01-.001.07.494c.05.293.06.412.07.461v.035l-.01.001-.03.005-.02.003-.13.016a65.582 65.582 0 0 1-2.81.279c-1.98.156-4.93.321-8.83.358-7.78.074-19.33-.364-34.38-2.408-30.12-4.089-74.28-14.604-130.505-40.299-112.457-51.39-273.184-163.492-466.411-406.321C299.87 14.512 139.262-97.476 26.98-148.786c-56.141-25.655-100.204-36.142-130.219-40.217-15.008-2.038-26.504-2.473-34.243-2.399-3.87.036-6.8.2-8.76.355-.98.077-1.718.152-2.209.207-.246.028-.43.05-.552.066l-.136.018-.033.005-.008.001Zm-6.836 8.576.074.495.008-.001.033-.005.137-.018c.122-.016.306-.038.551-.066.492-.055 1.229-.13 2.209-.207 1.96-.155 4.891-.319 8.76-.356 7.739-.073 19.236.362 34.243 2.4 30.015 4.075 74.078 14.562 130.22 40.217C132.5-88.405 293.107 23.583 486.261 266.319 679.49 509.148 840.216 621.251 952.673 672.641c56.227 25.695 100.387 36.21 130.497 40.299 15.06 2.044 26.6 2.482 34.39 2.408 3.89-.037 6.85-.202 8.83-.358a58.717 58.717 0 0 0 2.81-.279l.14-.019.04-.005.01-.002-.07-.495-.07-.494-.01.001-.03.004-.14.018-.13.016-.42.051c-.49.055-1.23.13-2.21.207-1.96.154-4.89.318-8.76.355-7.74.074-19.23-.361-34.24-2.399-30.02-4.076-74.08-14.563-130.221-40.218-112.282-51.31-272.89-163.298-466.044-406.034C293.817 22.868 133.091-89.235 20.634-140.624c-56.229-25.695-100.386-36.21-130.5-40.299-15.057-2.045-26.601-2.483-34.387-2.409-3.893.038-6.847.203-8.829.359-.992.078-1.74.154-2.243.21-.251.028-.44.052-.567.068l-.075.01-.07.009-.037.006-.01.001c-.002 0-.004.001.068.495Zm-6.687 9.566c-.002 0-.002 0-.074-.495-.073-.495-.071-.495-.069-.495l.01-.002.037-.005.145-.019c.127-.016.317-.04.568-.068a68.812 68.812 0 0 1 2.242-.211c1.983-.156 4.936-.321 8.829-.358 7.786-.074 19.331.364 34.387 2.409 30.114 4.089 74.272 14.603 130.5 40.298C126.33-80.164 287.056 31.939 480.283 274.768c193.154 242.736 353.762 354.724 466.044 406.034 56.143 25.655 100.203 36.142 130.223 40.218 15 2.037 26.5 2.472 34.24 2.399 3.87-.037 6.8-.201 8.76-.355l.72-.06c.23-.02.44-.04.64-.059a54.337 54.337 0 0 0 1.27-.139l.13-.016.14-.018.03-.005.01-.001v.043l.04.234.03.218c.05.321.06.434.07.473v.022l-.01.002-.04.005-.14.019c-.13.016-.32.04-.57.068-.5.057-1.25.133-2.24.211-1.99.156-4.94.321-8.83.358-7.79.074-19.33-.364-34.39-2.408-30.11-4.089-74.27-14.604-130.499-40.299-112.457-51.39-273.183-163.493-466.41-406.322C286.347 32.654 125.739-79.334 13.456-130.644c-56.14-25.655-100.204-36.142-130.218-40.218-15.008-2.037-26.505-2.472-34.244-2.399-3.869.037-6.799.201-8.76.355a66.564 66.564 0 0 0-2.76.274l-.06.008-.076.01-.033.005-.008.001Zm-6.835 8.576c.072.495.073.495.074.494l.008-.001.033-.004.136-.018c.122-.016.306-.039.552-.067.491-.055 1.229-.13 2.209-.207 1.96-.154 4.89-.318 8.76-.355 7.739-.074 19.235.361 34.243 2.399 30.014 4.076 74.078 14.563 130.219 40.218 112.282 51.31 272.89 163.298 466.044 406.034C665.967 527.29 826.694 639.393 939.151 690.782c56.228 25.695 100.389 36.21 130.499 40.299 15.06 2.045 26.6 2.483 34.39 2.409 3.89-.037 6.84-.202 8.83-.359a68.91 68.91 0 0 0 2.24-.21c.25-.028.44-.052.57-.068l.14-.019.04-.006.01-.001-.07-.495-.07-.495-.01.001-.03.005-.14.018-.13.016-.21.026-.1.011-.11.013c-.49.056-1.23.13-2.21.207-1.96.155-4.89.319-8.76.356-7.74.073-19.24-.362-34.24-2.4-30.02-4.075-74.083-14.562-130.224-40.217-112.282-51.31-272.89-163.298-466.044-406.034C280.295 41.009 119.568-71.093 7.112-122.483c-56.23-25.695-100.387-36.21-130.501-40.299-15.056-2.044-26.601-2.482-34.387-2.408-3.893.037-6.846.202-8.829.358a66.063 66.063 0 0 0-2.81.279l-.144.019-.038.005-.009.002c-.003 0-.004 0 .068.495Zm-6.688 9.566c-.001 0-.002 0-.074-.495-.072-.494-.071-.495-.068-.495l.01-.001.037-.006.073-.009.071-.01c.128-.016.317-.04.568-.068a66.492 66.492 0 0 1 2.243-.21c1.982-.157 4.935-.322 8.828-.359 7.786-.074 19.331.364 34.388 2.409 30.113 4.089 74.271 14.604 130.5 40.298C112.807-62.022 273.533 50.081 466.76 292.91c193.153 242.736 353.762 354.724 466.044 406.034 56.141 25.655 100.205 36.142 130.215 40.218 15.01 2.038 26.51 2.472 34.25 2.399 3.87-.037 6.8-.201 8.76-.355.4-.032.76-.064 1.09-.093a75.706 75.706 0 0 0 1.54-.165l.13-.016.08-.01.05-.008.04-.004v-.002c.01 0 .01 0 .08.495l.03.209.02.151.01.074.01.061-.01.002-.04.005-.14.019-.16.02-.2.024-.21.024c-.5.057-1.25.133-2.24.211-1.99.156-4.94.321-8.83.358-7.79.074-19.33-.364-34.39-2.408-30.11-4.089-74.272-14.604-130.501-40.299-112.457-51.39-273.184-163.493-466.411-406.322C272.824 50.796 112.216-61.192-.066-112.502c-56.141-25.655-100.204-36.142-130.219-40.217-15.008-2.038-26.504-2.473-34.243-2.4-3.87.037-6.8.201-8.76.355-.98.078-1.718.152-2.209.208-.246.027-.43.05-.551.066l-.137.018-.033.005-.008.001Zm-6.836 8.576c.073.495.073.495.075.495l.007-.002.034-.004.136-.018.227-.029c.093-.011.201-.024.324-.037a64.27 64.27 0 0 1 2.209-.208c1.96-.154 4.891-.318 8.76-.355 7.739-.073 19.236.362 34.243 2.399 30.015 4.076 74.078 14.563 130.22 40.218 112.281 51.31 272.889 163.298 466.043 406.034C652.444 545.432 813.17 657.535 925.627 708.925c56.229 25.694 100.383 36.209 130.503 40.298 15.05 2.045 26.6 2.483 34.38 2.409 3.9-.037 6.85-.202 8.83-.359.99-.078 1.74-.154 2.25-.21.25-.028.44-.052.56-.068l.15-.019.04-.006v-.001c.01 0 .01 0 0-.02 0-.039-.02-.151-.06-.475l-.08-.495-.01.001-.03.005-.13.018-.13.016a62.038 62.038 0 0 1-2.64.257c-1.96.155-4.89.319-8.75.356-7.74.073-19.24-.362-34.25-2.4-30.01-4.075-74.076-14.562-130.217-40.217-112.282-51.31-272.89-163.298-466.044-406.034C266.771 59.151 106.045-52.951-6.412-104.341c-56.229-25.695-100.386-36.21-130.5-40.299-15.057-2.044-26.601-2.482-34.387-2.408-3.893.037-6.847.202-8.829.358-.992.078-1.74.154-2.242.211-.252.028-.441.052-.568.068l-.099.013-.046.006-.037.005-.01.002c-.002 0-.004 0 .068.495Zm-6.687 9.565c-.002.001-.002.001-.074-.494s-.071-.495-.068-.495l.009-.002.037-.005.145-.019a66.063 66.063 0 0 1 2.81-.279c1.983-.156 4.936-.321 8.829-.358 7.786-.074 19.331.364 34.387 2.408 30.114 4.089 74.272 14.604 130.5 40.3C99.283-43.88 260.01 68.222 453.237 311.05c193.154 242.737 353.762 354.725 466.044 406.035 56.141 25.655 100.209 36.142 130.219 40.217 15.01 2.038 26.5 2.473 34.24 2.399 3.87-.036 6.8-.2 8.76-.355a61.929 61.929 0 0 0 2.43-.232l.21-.025.12-.016.05-.006.09-.012.03-.005.01-.001.08.495c.07.494.07.494.06.495l-.01.001-.03.005-.15.02-.09.011-.18.023-.3.034c-.5.056-1.25.132-2.24.21-1.98.156-4.93.321-8.83.358-7.78.075-19.33-.363-34.38-2.408-30.12-4.089-74.276-14.604-130.504-40.299-112.458-51.389-273.184-163.492-466.411-406.321C259.301 68.938 98.693-43.051-13.589-94.36c-56.142-25.655-100.205-36.142-130.219-40.218-15.008-2.038-26.504-2.473-34.243-2.399-3.87.037-6.8.201-8.76.355-.98.077-1.718.152-2.209.207l-.338.04-.214.027-.066.008-.07.01-.033.004-.008.001Zm-6.782 8.947.02.124.008-.001.033-.005.066-.008.07-.01c.122-.015.306-.038.552-.066.491-.055 1.229-.13 2.209-.207 1.96-.154 4.89-.318 8.76-.355 7.739-.074 19.235.361 34.243 2.399 30.015 4.075 74.078 14.563 130.219 40.217C91.93-33.98 252.539 78.008 445.693 320.745 638.92 563.574 799.647 675.676 912.104 727.066c56.229 25.695 100.386 36.21 130.496 40.299 15.06 2.044 26.6 2.482 34.39 2.408 3.89-.037 6.85-.202 8.83-.358l.49-.039c.26-.023.5-.044.72-.065a42.728 42.728 0 0 0 1.6-.175l.14-.019.04-.005.01-.001c0-.001.01-.001-.07-.496l-.04-.329c-.02-.083-.02-.124-.03-.145v-.02l-.01.001-.03.005-.14.018-.12.016-.16.019-.14.016-.13.015c-.49.055-1.23.13-2.21.207-1.96.155-4.89.318-8.76.355-7.74.074-19.23-.361-34.24-2.399-30.02-4.075-74.079-14.563-130.22-40.217-112.282-51.31-272.891-163.298-466.045-406.035C253.248 77.293 92.522-34.809-19.935-86.199c-56.23-25.695-100.387-36.21-130.501-40.299-15.056-2.044-26.601-2.482-34.387-2.408-3.893.037-6.846.202-8.829.358-.991.078-1.74.154-2.242.21-.251.029-.44.052-.568.069l-.09.011-.054.008-.037.005-.01.001c-.003.001-.004.001.068.496l.054.37Zm-6.741 9.195c-.001.001-.002.001-.074-.494s-.07-.495-.068-.495l.01-.002.037-.005.144-.019.12-.015.194-.024.093-.011.161-.018a66.177 66.177 0 0 1 2.243-.211c1.982-.156 4.936-.321 8.829-.358 7.786-.074 19.33.364 34.387 2.408 30.113 4.089 74.271 14.604 130.5 40.3C85.76-25.739 246.487 86.364 439.715 329.192 632.869 571.93 793.477 683.918 905.759 735.228c56.141 25.655 100.201 36.142 130.221 40.217 15.01 2.038 26.5 2.473 34.24 2.4 3.87-.037 6.8-.201 8.76-.356.98-.077 1.72-.151 2.21-.207l.19-.022.12-.014.11-.014.13-.016.14-.018.03-.005.01-.001v.019c.01.037.02.147.07.476l.07.495-.01.001-.04.006-.14.019c-.13.016-.32.04-.57.068-.5.056-1.25.132-2.24.21-1.98.157-4.94.322-8.83.359-7.79.074-19.33-.364-34.39-2.409-30.11-4.089-74.268-14.604-130.497-40.299-112.457-51.389-273.183-163.492-466.411-406.321C245.778 87.08 85.17-24.908-27.112-76.218c-56.141-25.655-100.204-36.142-130.219-40.218-15.007-2.038-26.504-2.473-34.243-2.399-3.869.037-6.8.201-8.76.355-.98.077-1.718.152-2.209.207-.245.028-.429.051-.551.067l-.064.008-.073.01-.033.004-.008.001Zm-6.834 8.577c.072.495.072.494.074.494l.007-.001.034-.004.136-.019c.122-.015.306-.038.551-.066.492-.055 1.229-.13 2.209-.207 1.961-.154 4.891-.318 8.76-.355 7.739-.074 19.236.361 34.243 2.399 30.015 4.076 74.078 14.563 130.22 40.218C78.408-15.837 239.017 96.15 432.17 338.887c193.228 242.829 353.954 354.931 466.411 406.321 56.229 25.695 100.387 36.21 130.498 40.299 15.06 2.044 26.6 2.483 34.39 2.408 3.89-.037 6.85-.202 8.83-.358a68.91 68.91 0 0 0 2.24-.21c.25-.028.44-.052.57-.068l.14-.02.04-.005.01-.001v-.039c-.01-.052-.03-.173-.07-.457l-.07-.494-.01.001-.03.005-.14.018-.13.016a67.142 67.142 0 0 1-2.63.257c-1.96.155-4.89.319-8.76.355-7.74.074-19.24-.361-34.24-2.399-30.018-4.075-74.081-14.562-130.222-40.217-112.282-51.31-272.89-163.298-466.044-406.035C239.727 95.435 79-16.667-33.457-68.057c-56.229-25.695-100.386-36.21-130.5-40.299-15.056-2.044-26.601-2.482-34.387-2.408-3.893.037-6.846.202-8.829.358-.991.078-1.74.154-2.242.211-.15.016-.278.032-.384.044a18.89 18.89 0 0 0-.329.043l-.037.005-.01.001c-.002.001-.004.001.069.496Zm-6.689 9.565c-.001 0-.002 0-.074-.494-.072-.495-.071-.495-.068-.496l.009-.001.038-.005.144-.02c.127-.016.317-.039.568-.068a69.433 69.433 0 0 1 2.242-.21c1.983-.156 4.936-.321 8.829-.358 7.786-.074 19.331.363 34.387 2.408 30.114 4.089 74.272 14.604 130.5 40.299C72.237-7.596 232.964 104.506 426.191 347.335 619.345 590.071 779.953 702.06 892.235 753.37c56.141 25.654 100.204 36.141 130.215 40.217 15.01 2.038 26.51 2.473 34.25 2.399 3.87-.037 6.8-.201 8.76-.355a69.96 69.96 0 0 0 2.21-.207l.15-.018.15-.018.12-.014.13-.016.07-.01.06-.009.04-.004.01-.001.07.494c.04.293.06.413.06.462l.01.034-.01.001-.04.005-.14.019a42.728 42.728 0 0 1-1.34.149c-.41.04-.9.085-1.47.13-1.99.156-4.94.321-8.83.358-7.79.074-19.33-.364-34.39-2.408-30.114-4.089-74.272-14.604-130.5-40.299-112.457-51.39-273.184-163.492-466.411-406.321C232.255 105.221 71.647-6.767-40.635-58.077-96.776-83.732-140.84-94.219-170.854-98.294c-15.008-2.038-26.504-2.473-34.243-2.399-3.87.036-6.8.2-8.76.355-.98.077-1.718.152-2.209.207a35.677 35.677 0 0 0-.688.084l-.033.005-.008.001Zm-6.786 8.915.024.156.008-.001.033-.005.136-.018c.122-.016.306-.038.552-.066a66.89 66.89 0 0 1 2.209-.207c1.96-.155 4.89-.319 8.76-.356 7.739-.073 19.235.362 34.243 2.4 30.015 4.075 74.078 14.562 130.219 40.217C64.885 2.304 225.493 114.292 418.647 357.03 611.874 599.857 772.601 711.96 885.058 763.35c56.229 25.695 100.386 36.21 130.502 40.299 15.05 2.044 26.6 2.482 34.39 2.408 3.89-.037 6.84-.202 8.82-.358a69.112 69.112 0 0 0 2.25-.211c.25-.028.44-.051.56-.068l.15-.019.04-.005.01-.002-.01-.034c0-.024-.01-.067-.02-.139-.01-.073-.02-.176-.04-.322-.07-.495-.08-.495-.08-.494v.001l-.04.004-.06.008-.07.01-.13.016-.23.028a45.075 45.075 0 0 1-1.16.122c-.36.034-.77.071-1.24.108-1.96.154-4.89.318-8.76.355-7.74.074-19.24-.361-34.25-2.399-30.012-4.076-74.075-14.563-130.216-40.218-112.282-51.309-272.891-163.298-466.045-406.034C226.202 113.577 65.476 1.474-46.981-49.915c-56.229-25.695-100.387-36.21-130.5-40.3-15.057-2.044-26.602-2.482-34.388-2.407-3.893.037-6.846.201-8.829.358-.991.078-1.74.154-2.242.21-.251.028-.44.052-.568.068l-.064.009-.08.01-.037.006-.01.001c-.003 0-.004 0 .068.495l.05.34Zm-6.737 9.228c-.002 0-.002 0-.075-.495-.072-.495-.07-.495-.068-.495l.01-.002.037-.005a21.492 21.492 0 0 1 .712-.087 67.824 67.824 0 0 1 2.243-.21c1.982-.157 4.936-.322 8.829-.359 7.786-.074 19.33.364 34.387 2.409 30.114 4.088 74.271 14.603 130.5 40.298C58.714 10.546 219.44 122.65 412.668 365.478 605.822 608.214 766.43 720.202 878.712 771.512c56.141 25.655 100.204 36.142 130.218 40.217 15.01 2.038 26.51 2.473 34.24 2.4 3.87-.037 6.8-.201 8.76-.355a63.886 63.886 0 0 0 2.64-.258l.12-.016.08-.009.06-.009.03-.005.01-.001.08.495c.07.495.07.495.06.495l-.01.002-.03.005c-.04.004-.08.011-.15.019l-.07.01-.1.012c-.11.013-.24.029-.4.046-.17.019-.36.041-.59.064-.12.011-.24.024-.38.036-.36.035-.79.073-1.27.111-1.98.156-4.93.321-8.83.358-7.78.074-19.33-.364-34.38-2.409-30.117-4.088-74.275-14.604-130.504-40.298-112.457-51.39-273.183-163.493-466.411-406.322C218.731 123.364 58.123 11.376-54.159-39.934-110.3-65.59-154.363-76.076-184.378-80.152c-15.007-2.037-26.504-2.472-34.243-2.399-3.869.037-6.8.201-8.76.355a67.1 67.1 0 0 0-2.209.208 34.928 34.928 0 0 0-.688.084l-.033.004-.007.002Zm-6.835 8.576c.072.495.072.495.074.495l.008-.002.033-.004.136-.018c.122-.016.306-.039.552-.067.491-.055 1.228-.13 2.209-.207 1.96-.154 4.89-.318 8.759-.355 7.739-.074 19.236.361 34.244 2.4 30.014 4.075 74.077 14.562 130.219 40.217C51.362 20.447 211.97 132.435 405.125 375.17 598.352 618 759.078 730.103 871.536 781.492c56.228 25.695 100.386 36.21 130.504 40.299 15.05 2.045 26.6 2.483 34.38 2.409 3.9-.038 6.85-.203 8.83-.359a68.91 68.91 0 0 0 2.24-.21c.26-.028.44-.052.57-.068l.15-.02.03-.005.01-.001c.01 0 .01-.001-.07-.495l-.07-.495-.01.001-.03.005-.14.018-.12.016-.12.014-.08.01-.1.012-.13.014c-.49.055-1.23.13-2.21.207-1.96.155-4.89.319-8.76.355-7.74.074-19.23-.361-34.24-2.399-30.015-4.075-74.078-14.562-130.219-40.217-112.282-51.31-272.89-163.298-466.044-406.035C212.68 131.72 51.953 19.617-60.503-31.772c-56.229-25.696-100.387-36.21-130.501-40.3-15.056-2.044-26.601-2.482-34.387-2.408-3.893.037-6.846.202-8.829.358-.991.078-1.74.154-2.242.21a36.045 36.045 0 0 0-.713.088l-.037.005-.01.002c-.002 0-.003 0 .069.495Zm-6.687 9.565c-.001 0-.002 0-.074-.495s-.071-.495-.068-.495l.01-.001.037-.006.144-.019c.127-.016.317-.04.568-.068a67.984 67.984 0 0 1 2.242-.21c1.983-.157 4.936-.322 8.829-.359 7.786-.074 19.331.364 34.387 2.409 30.114 4.089 74.272 14.604 130.5 40.298C45.192 28.688 205.92 140.79 399.146 383.62 592.3 626.355 752.908 738.343 865.191 789.653c56.14 25.655 100.204 36.142 130.218 40.218 15.011 2.037 26.501 2.472 34.241 2.399 3.87-.037 6.8-.201 8.76-.355a68.27 68.27 0 0 0 1.2-.103l.17-.017.08-.008.2-.019.15-.016.19-.02.22-.025c.17-.019.32-.036.43-.05l.12-.016.07-.009.07-.009.03-.005.01-.001v.012l.01.033c.01.055.02.177.06.45.08.495.07.495.07.495l-.01.002-.03.005c-.04.004-.09.011-.15.019-.13.016-.32.04-.57.068-.5.057-1.25.133-2.24.211-1.98.156-4.93.321-8.83.358-7.78.074-19.33-.364-34.385-2.408-30.114-4.089-74.272-14.604-130.5-40.299-112.457-51.39-273.184-163.493-466.411-406.322C205.21 141.505 44.602 29.517-67.68-21.793-123.821-47.448-167.884-57.935-197.9-62.011c-15.008-2.037-26.504-2.472-34.243-2.399-3.87.037-6.8.201-8.76.355a66.612 66.612 0 0 0-2.662.261l-.099.013-.136.018-.033.005h-.008Zm-6.837 8.577c.072.494.073.494.074.494l.008-.001.033-.005.137-.018c.122-.016.306-.038.551-.066a66.83 66.83 0 0 1 2.209-.207c1.96-.155 4.89-.319 8.76-.355 7.739-.074 19.235.361 34.243 2.399 30.015 4.075 74.078 14.562 130.219 40.217 112.282 51.31 272.89 163.298 466.044 406.035 193.228 242.829 353.954 354.931 466.411 406.321 56.229 25.695 100.386 36.21 130.5 40.299 15.058 2.044 26.598 2.482 34.388 2.408 3.89-.037 6.85-.202 8.83-.358a68.91 68.91 0 0 0 2.24-.21l.18-.021.16-.019.23-.029.14-.019.04-.005.01-.001v-.021c-.01-.039-.02-.151-.07-.475-.04-.283-.06-.404-.07-.456v-.038l-.01.001-.03.004-.07.01-.07.009-.13.016-.42.05c-.49.055-1.23.13-2.21.207-1.96.154-4.89.318-8.76.355-7.74.074-19.24-.361-34.243-2.399-30.015-4.076-74.078-14.563-130.219-40.218-112.282-51.309-272.891-163.298-466.044-406.034C199.156 149.861 38.43 37.759-74.027-13.631c-56.229-25.695-100.387-36.21-130.5-40.3-15.057-2.044-26.601-2.481-34.387-2.407-3.893.037-6.847.202-8.829.358-.992.078-1.74.154-2.243.21a36.042 36.042 0 0 0-.712.088l-.037.005-.01.001c-.002 0-.004 0 .068.496Zm-6.687 9.565c-.002 0-.002 0-.074-.495-.073-.494-.071-.495-.069-.495l.01-.001.037-.005.145-.02c.127-.016.316-.04.568-.068.502-.056 1.25-.132 2.242-.21 1.983-.157 4.936-.322 8.829-.358 7.786-.075 19.33.363 34.387 2.408 30.114 4.089 74.271 14.604 130.5 40.299C31.668 46.83 192.394 158.932 385.622 401.76c193.154 242.736 353.762 354.725 466.044 406.034 56.141 25.655 100.204 36.142 130.219 40.218 15.008 2.038 26.505 2.473 34.245 2.399 3.87-.037 6.8-.201 8.76-.355.98-.077 1.72-.152 2.21-.207l.42-.051.13-.016c.06-.007.1-.014.13-.018l.04-.004.01-.001v.027c.01.045.03.162.07.467.02.126.03.22.04.29l.01.077.01.064.01.064-.01.002-.04.005-.14.019a65.582 65.582 0 0 1-2.81.279c-1.99.156-4.94.321-8.83.358-7.79.074-19.333-.364-34.39-2.408-30.113-4.089-74.271-14.604-130.5-40.299-112.457-51.39-273.183-163.493-466.411-406.322C191.686 159.647 31.077 47.659-81.205-3.651c-56.141-25.655-100.204-36.142-130.219-40.217-15.007-2.038-26.504-2.473-34.243-2.4-3.869.037-6.799.201-8.76.355a67.1 67.1 0 0 0-2.209.208c-.245.027-.429.05-.551.066l-.053.007-.083.011-.034.005h-.007Zm-6.836 8.576c.072.495.072.495.074.495l.008-.001.033-.005a18.866 18.866 0 0 1 .445-.056l.243-.028a66.83 66.83 0 0 1 2.209-.208c1.96-.154 4.89-.318 8.76-.355 7.739-.073 19.235.362 34.243 2.4 30.014 4.075 74.078 14.562 130.219 40.217 112.282 51.31 272.89 163.298 466.044 406.034 193.227 242.829 353.954 354.932 466.411 406.322 56.228 25.695 100.386 36.209 130.5 40.298 15.056 2.045 26.601 2.483 34.391 2.409 3.89-.037 6.84-.202 8.82-.358.42-.033.79-.066 1.12-.096.46-.043.84-.082 1.13-.115l.16-.018.13-.016.15-.018.13-.016.08-.011.06-.008.04-.005.01-.002-.01-.041c0-.052-.02-.174-.06-.454a9.197 9.197 0 0 0-.07-.461c0-.034-.01-.034-.01-.034v.001l-.04.005-.07.009-.06.009-.13.016a75.798 75.798 0 0 1-1.16.128c-.41.04-.9.084-1.47.13-1.96.154-4.89.318-8.76.355-7.74.073-19.239-.362-34.247-2.4-30.014-4.075-74.078-14.562-130.219-40.217-112.282-51.31-272.89-163.298-466.044-406.034C185.633 168.003 24.906 55.9-87.55 4.51-143.78-21.184-187.938-31.7-218.052-35.788c-15.056-2.045-26.601-2.483-34.387-2.409-3.893.037-6.846.202-8.829.358-.991.078-1.74.154-2.242.21a34.626 34.626 0 0 0-.712.088l-.038.005-.009.002c-.003 0-.004 0 .068.495Zm-6.7 9.49-.061-.419c-.072-.495-.071-.495-.068-.495l.01-.002.037-.005.045-.006.099-.013a33.055 33.055 0 0 1 .408-.05l.089-.01.071-.008a67.984 67.984 0 0 1 2.242-.21c1.983-.157 4.936-.322 8.829-.359 7.786-.074 19.331.364 34.388 2.408 30.113 4.09 74.271 14.604 130.5 40.3 112.457 51.389 273.183 163.492 466.41 406.32 193.154 242.737 353.762 354.725 466.045 406.035 56.141 25.655 100.204 36.142 130.218 40.217 15.008 2.038 26.505 2.473 34.248 2.399 3.87-.036 6.8-.2 8.76-.355a65.951 65.951 0 0 0 2.63-.257l.13-.016.08-.011.05-.007.04-.005v-.001l.01.033c.01.049.02.168.07.462l.07.495-.01.001-.04.005-.06.009-.09.011-.16.021-.4.047c-.51.056-1.25.132-2.25.21-1.98.156-4.93.322-8.82.359-7.791.074-19.336-.364-34.392-2.409-30.114-4.089-74.271-14.604-130.5-40.299-112.457-51.389-273.184-163.492-466.411-406.321C178.163 177.789 17.555 65.801-94.727 14.491c-56.141-25.655-100.204-36.142-130.219-40.218-15.008-2.038-26.504-2.473-34.243-2.399-3.87.037-6.8.2-8.76.355a66.83 66.83 0 0 0-2.209.207l-.154.018-.185.022a32.51 32.51 0 0 0-.349.045l-.033.004-.008.002-.013-.077Zm-6.823 8.653.074.495.008-.001.033-.005.137-.018c.122-.016.306-.039.551-.066a66.83 66.83 0 0 1 2.209-.208c1.96-.154 4.891-.318 8.76-.355 7.739-.073 19.236.362 34.243 2.4 30.015 4.075 74.078 14.562 130.219 40.217 112.282 51.31 272.89 163.298 466.044 406.034 193.228 242.829 353.954 354.932 466.411 406.322 56.229 25.695 100.387 36.21 130.5 40.299 15.057 2.044 26.601 2.482 34.387 2.408 3.893-.037 6.847-.202 8.827-.358a65.582 65.582 0 0 0 2.55-.247c.11-.012.19-.023.26-.032.07-.008.11-.015.15-.019l.03-.005.01-.002c.01 0 .01 0-.06-.495l-.05-.317c-.01-.081-.02-.126-.02-.149l-.01-.029-.01.002-.03.004-.14.018-.12.016a63.886 63.886 0 0 1-2.64.258c-1.96.154-4.887.318-8.756.355-7.739.073-19.236-.362-34.243-2.399-30.015-4.076-74.078-14.563-130.219-40.218-112.282-51.31-272.89-163.298-466.044-406.034C172.11 186.146 11.384 74.043-101.073 22.653c-56.229-25.694-100.387-36.21-130.5-40.298-15.057-2.045-26.601-2.483-34.387-2.409-3.893.037-6.847.202-8.829.358a67.824 67.824 0 0 0-2.579.25l-.232.03-.081.01-.063.008-.037.006h-.01c-.002.001-.004.002.068.496Zm-6.687 9.565c-.002 0-.002 0-.074-.494-.073-.495-.071-.495-.069-.496l.01-.001.037-.005.071-.01.074-.01c.127-.016.317-.04.568-.068a67.706 67.706 0 0 1 2.242-.21c1.983-.156 4.936-.321 8.829-.358 7.786-.074 19.331.363 34.387 2.408 30.114 4.089 74.271 14.604 130.5 40.299C4.622 83.114 165.349 195.216 358.576 438.045 551.73 680.781 712.338 792.77 824.62 844.079c56.141 25.655 100.204 36.142 130.219 40.218 15.008 2.038 26.504 2.473 34.243 2.399 3.87-.037 6.8-.201 8.76-.355.98-.077 1.718-.152 2.208-.207l.43-.05.12-.016.14-.019.03-.004.01-.001v.004c0 .004 0 .012.01.025 0 .046.02.163.06.465.04.259.06.382.07.441v.055l-.01.001-.03.005-.15.019a22.852 22.852 0 0 1-.57.069 68.24 68.24 0 0 1-2.239.21c-1.983.156-4.936.321-8.829.358-7.786.074-19.331-.364-34.387-2.408-30.114-4.089-74.272-14.604-130.5-40.299-112.458-51.39-273.184-163.493-466.411-406.321C164.64 195.931 4.032 83.943-108.251 32.633-164.392 6.978-208.455-3.509-238.469-7.584c-15.008-2.038-26.505-2.473-34.244-2.4-3.869.037-6.799.201-8.76.356-.98.077-1.717.152-2.208.207a33.853 33.853 0 0 0-.688.084l-.033.005-.008.001Zm-6.836 8.576c.072.495.073.495.074.495l.008-.001.033-.005.058-.008.078-.01c.122-.016.306-.039.552-.066a66.85 66.85 0 0 1 2.209-.207c1.96-.155 4.89-.319 8.76-.356 7.739-.073 19.235.362 34.243 2.4 30.015 4.075 74.078 14.562 130.219 40.217 112.282 51.31 272.89 163.298 466.044 406.034C544.259 690.567 704.986 802.67 817.443 854.06c56.228 25.695 100.386 36.21 130.5 40.299 15.056 2.044 26.601 2.482 34.387 2.408 3.893-.037 6.846-.202 8.829-.358a66.063 66.063 0 0 0 2.81-.279l.145-.019.037-.005.009-.002c.001 0 .002 0-.002-.032a26.047 26.047 0 0 0-.066-.463c-.072-.495-.072-.495-.074-.495l-.008.002-.033.004-.136.018-.127.016a63.774 63.774 0 0 1-2.634.258c-1.96.154-4.89.318-8.759.355-7.739.073-19.236-.361-34.244-2.399-30.014-4.076-74.077-14.563-130.219-40.218-112.282-51.31-272.89-163.298-466.044-406.034C158.587 204.287-2.14 92.184-114.597 40.794-170.825 15.1-214.983 4.584-245.097.496c-15.056-2.045-26.601-2.483-34.387-2.409-3.893.037-6.846.202-8.829.359-.991.078-1.74.154-2.242.21a34.723 34.723 0 0 0-.712.087l-.038.006-.009.001c-.003 0-.004 0 .068.495Zm-6.688 9.566-.002-.01a1.138 1.138 0 0 1-.01-.062l-.011-.079-.051-.344c-.072-.495-.071-.495-.068-.495l.01-.002.037-.005.144-.019c.128-.016.317-.04.568-.068a67.813 67.813 0 0 1 2.242-.21c1.983-.157 4.936-.322 8.829-.359 7.787-.074 19.331.364 34.388 2.408 30.113 4.09 74.271 14.604 130.5 40.3 112.457 51.389 273.183 163.492 466.411 406.321 193.153 242.736 353.762 354.724 466.044 406.034 56.141 25.655 100.204 36.142 130.219 40.217 15.007 2.038 26.504 2.473 34.243 2.4 3.869-.037 6.8-.201 8.76-.355l.517-.043.205-.017.33-.03c.139-.013.271-.025.396-.038.298-.029.552-.056.761-.08l.221-.025.204-.025.126-.016.07-.009.067-.009.033-.005.007-.001.002.006.003.02.008.047.016.109.045.313.054.371.007.049.006.045.002.023v.007l-.01.002-.037.005-.031.004-.114.015c-.127.016-.316.04-.568.068-.502.057-1.25.132-2.242.211-1.983.156-4.936.321-8.829.358-7.786.074-19.33-.364-34.387-2.409-30.114-4.089-74.271-14.603-130.5-40.298-112.457-51.39-273.184-163.493-466.411-406.322C151.116 214.073-9.492 102.085-121.774 50.775c-56.141-25.655-100.204-36.142-130.219-40.218-15.008-2.037-26.504-2.472-34.243-2.399-3.87.037-6.8.201-8.76.355a66.87 66.87 0 0 0-2.209.208c-.246.027-.43.05-.551.066l-.084.01-.053.008-.033.005h-.008Zm-6.835 8.576.063.425.005.03.004.026.001.007.001.005v.001h.008l.033-.005.078-.01.059-.008c.122-.016.306-.039.551-.067a67.1 67.1 0 0 1 2.209-.207c1.96-.154 4.891-.318 8.76-.355 7.739-.074 19.236.361 34.243 2.4 30.015 4.075 74.078 14.562 130.219 40.217 112.282 51.309 272.89 163.298 466.044 406.034C530.737 708.709 691.463 820.812 803.92 872.201c56.229 25.695 100.387 36.21 130.5 40.299 15.057 2.045 26.601 2.483 34.388 2.409 3.893-.037 6.846-.203 8.828-.359a69.276 69.276 0 0 0 2.243-.21l.343-.04.124-.016.101-.012.081-.011.063-.009.037-.005.01-.001c.001 0 .002 0-.003-.041a37.085 37.085 0 0 0-.065-.454l-.069-.468-.004-.023-.001-.004-.008.001-.033.005-.137.018-.126.016a67.293 67.293 0 0 1-2.634.257c-1.96.155-4.89.319-8.76.355-7.739.074-19.235-.361-34.243-2.399-30.015-4.075-74.078-14.562-130.219-40.217-112.282-51.31-272.89-163.298-466.044-406.035C145.064 222.429-15.662 110.326-128.119 58.937c-56.229-25.696-100.386-36.21-130.5-40.3-15.057-2.044-26.601-2.482-34.387-2.408-3.893.037-6.847.202-8.829.358a67.44 67.44 0 0 0-2.242.21c-.252.029-.441.052-.568.069l-.145.019-.037.005-.01.002c-.002 0-.004 0 .068.495Zm-6.687 9.565c-.002 0-.002 0-.074-.494-.072-.495-.071-.495-.069-.496l.01-.001.037-.005.145-.02c.127-.016.317-.04.568-.067a67.706 67.706 0 0 1 2.242-.211c1.983-.156 4.936-.321 8.829-.358 7.786-.074 19.331.364 34.387 2.408 30.114 4.09 74.272 14.604 130.5 40.299 112.457 51.39 273.184 163.492 466.411 406.321 193.154 242.737 353.762 354.725 466.044 406.035 56.141 25.655 100.204 36.142 130.219 40.217 15.008 2.038 26.504 2.473 34.243 2.399 3.87-.036 6.8-.2 8.76-.355a67.293 67.293 0 0 0 2.634-.257l.127-.016.08-.011.056-.007.033-.005.008-.001c.001 0 .002 0 .074.494.072.495.071.495.068.496l-.01.001-.037.005-.144.02c-.127.016-.317.039-.568.068-.502.056-1.251.132-2.242.21-1.983.156-4.936.321-8.829.358-7.786.074-19.331-.364-34.387-2.408-30.114-4.089-74.272-14.604-130.5-40.299-112.458-51.39-273.184-163.492-466.411-406.321C137.594 232.214-23.014 120.226-135.296 68.916-191.438 43.262-235.501 32.775-265.515 28.7c-15.008-2.038-26.505-2.473-34.244-2.4-3.869.038-6.799.202-8.759.356-.981.077-1.718.152-2.209.207-.246.028-.43.05-.552.066l-.097.013-.039.006-.033.004-.008.001Zm-6.836 8.577c.072.494.073.494.074.494l.008-.001.033-.005.064-.008.072-.01c.122-.016.306-.038.552-.066a66.83 66.83 0 0 1 2.209-.207c1.96-.155 4.89-.319 8.76-.355 7.739-.074 19.235.361 34.243 2.399 30.015 4.075 74.078 14.562 130.219 40.217 112.282 51.31 272.89 163.298 466.044 406.035C517.213 726.851 677.94 838.953 790.397 890.343c56.229 25.695 100.386 36.21 130.5 40.299 15.056 2.044 26.601 2.482 34.387 2.408 3.893-.037 6.846-.202 8.829-.358.991-.078 1.74-.154 2.242-.211l.133-.015.094-.011.116-.014.14-.017.085-.011.145-.019.037-.005.01-.002c.001 0 .002 0-.005-.047a3.566 3.566 0 0 0-.02-.144l-.044-.304-.035-.245-.032-.214c-.006-.036-.006-.035-.007-.035l-.007.001-.034.004c-.03.004-.075.011-.136.018l-.126.016a51.653 51.653 0 0 1-1.31.143c-.376.036-.818.075-1.324.115-1.961.154-4.891.318-8.76.355-7.739.074-19.236-.361-34.244-2.399-30.014-4.076-74.077-14.563-130.218-40.218-112.283-51.309-272.891-163.297-466.045-406.034C131.541 240.57-29.185 128.468-141.643 77.078c-56.228-25.695-100.386-36.21-130.5-40.3-15.056-2.044-26.601-2.481-34.387-2.407-3.893.037-6.846.202-8.829.358-.991.078-1.74.154-2.242.21l-.104.012-.057.007-.163.019-.065.008a37.692 37.692 0 0 0-.323.042l-.037.005-.01.001c-.003 0-.004 0 .068.496Zm-6.688 9.565c-.001 0-.002 0-.074-.495-.072-.494-.07-.495-.068-.495l.01-.001.037-.006.042-.005.102-.014c.128-.016.317-.04.568-.068a67.824 67.824 0 0 1 2.243-.21c1.982-.156 4.936-.322 8.829-.359 7.786-.074 19.33.364 34.387 2.409 30.113 4.089 74.271 14.604 130.5 40.298 112.457 51.39 273.183 163.493 466.411 406.322C511.16 735.206 671.769 847.194 784.051 898.504c56.141 25.655 100.204 36.142 130.219 40.218 15.007 2.038 26.504 2.472 34.243 2.399 3.869-.037 6.8-.201 8.76-.355.98-.077 1.718-.152 2.209-.208l.182-.021.187-.022.056-.007.126-.016.137-.018.033-.004.008-.002.002.013.003.015.069.467c.072.495.07.495.068.495l-.01.002-.037.005-.144.019-.332.041-.236.027a52.748 52.748 0 0 1-1.582.156l-.661.055c-1.982.156-4.936.321-8.829.358-7.786.074-19.33-.364-34.387-2.408-30.113-4.089-74.271-14.604-130.5-40.299-112.457-51.39-273.183-163.493-466.411-406.322C124.07 250.356-36.538 138.368-148.82 87.058c-56.141-25.655-100.204-36.142-130.219-40.217-15.007-2.038-26.504-2.473-34.243-2.4-3.869.037-6.8.201-8.76.355a66.83 66.83 0 0 0-2.209.208 34.928 34.928 0 0 0-.688.084l-.033.005h-.008Zm-6.835 8.578c.072.494.072.494.074.494l.007-.001.034-.005.028-.003a18.038 18.038 0 0 1 .358-.046l.301-.035a67.1 67.1 0 0 1 2.209-.207c1.961-.154 4.891-.319 8.76-.355 7.739-.074 19.236.361 34.243 2.399 30.015 4.075 74.078 14.563 130.219 40.217C-43.3 147.44 117.309 259.428 310.462 502.165 503.69 744.994 664.416 857.096 776.873 908.486c56.229 25.695 100.387 36.21 130.5 40.299 15.057 2.044 26.602 2.482 34.388 2.408 3.893-.037 6.846-.202 8.829-.358a69.433 69.433 0 0 0 2.639-.257l.171-.022.092-.012.052-.007.037-.005.01-.001c.003-.001.004-.001-.068-.496l-.069-.467-.005-.027-.008.001-.033.004-.136.019-.127.016-.174.021-.126.014-.125.015c-.292.033-.671.073-1.137.116-.317.029-.675.06-1.072.091-1.96.154-4.89.318-8.76.355-7.739.074-19.235-.361-34.243-2.399-30.015-4.076-74.078-14.563-130.219-40.217-112.282-51.31-272.89-163.298-466.044-406.035C118.018 258.713-42.709 146.611-155.166 95.221c-56.229-25.695-100.386-36.21-130.5-40.299-15.056-2.044-26.601-2.482-34.387-2.408-3.893.037-6.846.202-8.829.358-.991.078-1.74.154-2.242.21a34.87 34.87 0 0 0-.568.069l-.066.008-.079.01-.037.006-.01.001c-.002 0-.004 0 .069.496Zm-6.687 9.564c-.002 0-.002 0-.074-.495-.072-.494-.071-.495-.068-.495l.009-.001.038-.005.067-.01.077-.01c.127-.016.317-.04.568-.068a67.706 67.706 0 0 1 2.242-.21c1.983-.157 4.936-.322 8.829-.358 7.786-.075 19.331.363 34.387 2.408 30.114 4.089 74.272 14.604 130.5 40.299C-49.47 155.68 111.257 267.783 304.484 510.612c193.154 242.736 353.762 354.725 466.044 406.034 56.141 25.655 100.204 36.142 130.219 40.218 15.008 2.038 26.504 2.473 34.243 2.399 3.87-.037 6.8-.201 8.76-.355l.611-.05a73.665 73.665 0 0 0 1.598-.157l.135-.016.18-.021.11-.014.127-.016c.061-.007.106-.014.136-.018l.033-.004.008-.001.002.005.006.041.066.448c.072.495.071.495.068.495l-.009.002-.038.005-.144.019a66.063 66.063 0 0 1-2.81.279c-1.983.156-4.936.321-8.829.358-7.786.074-19.331-.364-34.387-2.408-30.114-4.089-74.272-14.604-130.5-40.299-112.457-51.39-273.184-163.493-466.411-406.321C110.548 268.498-50.06 156.51-162.342 105.2c-56.141-25.655-100.205-36.142-130.219-40.217-15.008-2.038-26.504-2.473-34.243-2.4-3.87.037-6.8.201-8.76.356a66.83 66.83 0 0 0-2.209.207c-.246.027-.43.05-.552.066l-.136.018-.033.005h-.008Zm-6.836 8.576c.072.495.073.495.074.495l.008-.001.033-.005.039-.005.097-.013c.122-.016.306-.039.552-.066a66.83 66.83 0 0 1 2.209-.208c1.96-.154 4.89-.318 8.76-.355 7.739-.073 19.235.362 34.243 2.4 30.015 4.075 74.078 14.562 130.219 40.217 112.282 51.31 272.89 163.298 466.044 406.034 193.227 242.829 353.954 354.932 466.411 406.322 56.229 25.695 100.386 36.209 130.5 40.299 15.057 2.044 26.601 2.482 34.387 2.408 3.893-.037 6.846-.202 8.829-.358.992-.079 1.74-.154 2.242-.211.251-.028.441-.052.568-.068l.145-.019.037-.005.01-.002-.002-.025a23.319 23.319 0 0 0-.067-.47c-.072-.495-.072-.495-.074-.495l-.007.001-.033.005-.137.018-.126.016a66.952 66.952 0 0 1-2.634.258c-1.96.154-4.891.318-8.76.355-7.739.073-19.236-.362-34.243-2.399-30.015-4.076-74.078-14.563-130.219-40.218-112.283-51.31-272.891-163.298-466.045-406.034-193.227-242.829-353.953-354.932-466.41-406.322-56.229-25.695-100.387-36.21-130.5-40.298-15.057-2.045-26.602-2.483-34.388-2.409-3.893.037-6.846.202-8.829.359-.991.078-1.74.153-2.242.21-.251.028-.44.052-.568.068l-.095.013-.049.006-.037.005-.01.002c-.003 0-.004 0 .068.495Zm-6.688 9.566-.074-.495c-.072-.495-.07-.495-.068-.495l.01-.002.037-.005a34.452 34.452 0 0 1 .712-.087 67.824 67.824 0 0 1 2.243-.21c1.982-.157 4.936-.322 8.829-.359 7.786-.074 19.33.364 34.387 2.408 30.114 4.09 74.271 14.604 130.5 40.299 112.457 51.39 273.183 163.493 466.411 406.321C484.115 771.49 644.723 883.478 757.005 934.788c56.141 25.655 100.204 36.142 130.219 40.217 15.007 2.038 26.504 2.473 34.243 2.4 3.869-.037 6.8-.201 8.76-.356l.474-.038a58.04 58.04 0 0 0 2.16-.219l.126-.016.137-.018.033-.005.008-.001c.001 0 .002 0 .074.495l.067.47c.003.025.002.025.001.025l-.01.001-.037.006-.144.019c-.128.016-.317.04-.568.068a64.844 64.844 0 0 1-2.243.21c-1.982.157-4.936.322-8.829.359-7.786.074-19.33-.364-34.387-2.409-30.113-4.089-74.271-14.604-130.5-40.299-112.457-51.389-273.183-163.492-466.411-406.321C97.024 286.64-63.584 174.652-175.866 123.342-232.007 97.687-276.07 87.2-306.085 83.124c-15.007-2.037-26.504-2.472-34.243-2.399-3.869.037-6.8.2-8.76.355a67.1 67.1 0 0 0-2.209.207 33.756 33.756 0 0 0-.688.085l-.033.004-.008.001Zm-6.835 8.576c.072.495.072.495.074.495l.008-.001.033-.005.136-.018c.122-.016.306-.039.552-.066a66.71 66.71 0 0 1 2.208-.207c1.961-.155 4.891-.319 8.76-.356 7.739-.073 19.236.362 34.244 2.4 30.014 4.075 74.077 14.562 130.218 40.217 112.283 51.31 272.89 163.298 466.045 406.034C476.644 781.276 637.37 893.379 749.828 944.769c56.228 25.695 100.386 36.21 130.5 40.299 15.056 2.044 26.601 2.482 34.387 2.408 3.893-.037 6.846-.202 8.829-.358a66.063 66.063 0 0 0 2.81-.279l.144-.019.037-.005.01-.002.001-.002v-.005l-.002-.015-.028-.205-.039-.268c-.072-.495-.073-.495-.074-.495l-.008.002-.033.004-.136.018-.127.016a64.021 64.021 0 0 1-2.634.258c-1.96.154-4.89.318-8.76.355-7.739.073-19.235-.361-34.243-2.399-30.015-4.076-74.078-14.563-130.219-40.218-112.282-51.31-272.89-163.298-466.044-406.034C90.972 294.996-69.755 182.893-182.212 131.504c-56.229-25.695-100.386-36.21-130.5-40.3-15.056-2.044-26.601-2.482-34.387-2.408-3.893.037-6.846.202-8.829.359-.991.078-1.74.153-2.242.21a34.87 34.87 0 0 0-.568.068l-.145.02-.037.005-.01.001c-.002 0-.003 0 .069.495Zm-6.688 9.566c-.001 0-.002 0-.074-.495s-.071-.495-.068-.495l.01-.002.037-.005.144-.019c.127-.016.317-.04.568-.068a67.706 67.706 0 0 1 2.242-.21c1.983-.157 4.936-.322 8.829-.359 7.786-.074 19.331.364 34.387 2.408 30.114 4.089 74.272 14.604 130.5 40.299 112.457 51.39 273.184 163.493 466.411 406.322C470.591 789.632 631.199 901.62 743.481 952.93c56.142 25.655 100.205 36.142 130.219 40.217 15.008 2.038 26.505 2.473 34.244 2.4 3.869-.037 6.799-.201 8.76-.355a76.448 76.448 0 0 0 2.208-.208 29.9 29.9 0 0 0 .426-.05l.126-.016.136-.018.033-.005.008-.001c.002 0 .002 0 .074.495l.067.466c.003.029.002.029.001.029l-.009.002-.037.005-.145.019-.145.018-.137.017-.286.033c-.502.057-1.251.132-2.242.211-1.983.156-4.936.321-8.829.358-7.786.074-19.331-.364-34.387-2.409-30.114-4.089-74.271-14.603-130.5-40.298-112.457-51.39-273.184-163.493-466.411-406.322C83.501 304.782-77.107 192.794-189.389 141.484c-56.141-25.655-100.204-36.142-130.219-40.218-15.008-2.037-26.504-2.472-34.243-2.399-3.87.037-6.8.201-8.76.355a66.83 66.83 0 0 0-2.209.208c-.246.027-.43.05-.552.066l-.08.01-.056.008-.033.005h-.008Zm-6.835 8.577c.072.495.073.495.074.494l.008-.001.033-.004.055-.008.082-.01c.122-.016.306-.039.551-.067.491-.055 1.229-.13 2.209-.207 1.96-.154 4.89-.318 8.76-.355 7.739-.074 19.235.361 34.243 2.399 30.015 4.076 74.078 14.563 130.219 40.218C-83.868 201.865 76.74 313.854 269.894 556.59c193.228 242.829 353.954 354.932 466.411 406.321 56.229 25.695 100.386 36.21 130.5 40.299 15.057 2.04 26.601 2.48 34.387 2.41 3.893-.04 6.846-.2 8.829-.36.992-.08 1.74-.15 2.242-.21.252-.03.441-.05.568-.07.064-.01.112-.01.145-.02h.047l-.002-.03a47.831 47.831 0 0 0-.133-.92l-.008-.04h-.04c-.03.01-.076.01-.137.02l-.126.02c-.112.01-.254.03-.425.05-.24.02-.539.05-.896.09-.374.03-.812.07-1.313.11-1.96.16-4.891.32-8.76.36-7.739.07-19.236-.36-34.243-2.4-30.015-4.076-74.078-14.563-130.219-40.218-112.282-51.31-272.891-163.298-466.044-406.035C77.449 313.139-83.277 201.036-195.734 149.646c-56.229-25.695-100.387-36.21-130.5-40.299-15.057-2.044-26.601-2.482-34.388-2.408-3.893.037-6.846.202-8.828.358a65.921 65.921 0 0 0-2.811.279l-.092.012-.052.007-.037.005-.01.002c-.002 0-.004 0 .068.495Zm-6.687 9.565c-.002 0-.002 0-.075-.494-.072-.495-.07-.495-.068-.496l.01-.001.037-.005.145-.019c.127-.017.316-.04.568-.069.502-.056 1.25-.132 2.242-.21 1.983-.156 4.936-.321 8.829-.358 7.786-.074 19.33.364 34.387 2.408 30.114 4.089 74.271 14.604 130.5 40.299 112.457 51.39 273.183 163.492 466.411 406.321 193.154 242.737 353.762 354.725 466.044 406.035 56.141 25.654 100.204 36.137 130.219 40.217 15.008 2.04 26.504 2.47 34.243 2.4 3.87-.04 6.8-.2 8.76-.36.98-.07 1.718-.15 2.209-.2.172-.02.314-.04.425-.05l.126-.02c.062-.01.107-.01.137-.02h.041l.004.02c.006.03.022.14.07.47l.067.47.002.02-.001.01h-.047l-.075.01-.069.01c-.128.02-.317.04-.568.07-.502.06-1.251.13-2.243.21-1.982.16-4.935.32-8.828.36-7.787.07-19.331-.36-34.388-2.41-30.113-4.09-74.271-14.603-130.5-40.298-112.457-51.39-273.183-163.492-466.411-406.321C69.978 322.924-90.63 210.936-202.912 159.626c-56.141-25.654-100.204-36.141-130.219-40.217-15.007-2.038-26.504-2.473-34.243-2.399-3.869.037-6.8.201-8.76.355-.98.077-1.717.152-2.209.207-.245.028-.429.051-.551.066l-.136.018-.034.005-.007.001Zm-6.836 8.577c.072.494.072.494.074.494l.008-.001.033-.005.136-.018c.122-.016.306-.038.552-.066.491-.055 1.229-.13 2.209-.207 1.96-.155 4.89-.319 8.76-.355 7.739-.074 19.235.361 34.243 2.399 30.014 4.075 74.078 14.562 130.219 40.217 112.282 51.31 272.89 163.298 466.044 406.035C449.598 817.56 610.324 929.663 722.782 981.053c56.228 25.697 100.386 36.207 130.5 40.297 15.056 2.05 26.601 2.48 34.387 2.41 3.893-.04 6.846-.2 8.829-.36.16-.01.314-.02.461-.04l.45-.03c.553-.05.996-.1 1.331-.14.251-.03.441-.05.568-.07l.087-.01.057-.01h.047c.003 0 .004 0-.068-.5-.072-.49-.073-.49-.074-.49h-.041l-.071.01-.065.01-.127.02c-.111.01-.253.03-.425.05-.491.05-1.229.13-2.209.2-1.96.16-4.89.32-8.76.36-7.739.07-19.235-.36-34.243-2.4-30.015-4.07-74.078-14.56-130.219-40.216-112.282-51.31-272.89-163.299-466.044-406.035C63.926 331.28-96.801 219.177-209.258 167.788c-56.228-25.695-100.386-36.21-130.5-40.299-15.056-2.045-26.601-2.482-34.387-2.408-3.893.037-6.846.202-8.829.358-.991.078-1.74.154-2.242.21-.251.028-.441.052-.568.068l-.145.02-.037.005-.009.001c-.003.001-.004.001.068.496Zm-6.688 9.564c-.001.001-.002.001-.074-.494s-.071-.495-.068-.496l.01-.001.037-.005.019-.003.057-.007.068-.009a66.063 66.063 0 0 1 2.81-.279c1.983-.156 4.936-.321 8.829-.358 7.786-.074 19.331.364 34.388 2.408 30.113 4.089 74.271 14.604 130.499 40.299 112.458 51.39 273.184 163.492 466.411 406.321 193.154 242.737 353.762 354.725 466.045 406.035 56.141 25.656 100.204 36.146 130.218 40.216 15.008 2.04 26.505 2.47 34.244 2.4 3.869-.04 6.799-.2 8.76-.35.98-.08 1.717-.16 2.209-.21.171-.02.313-.04.425-.05l.126-.02c.061-.01.106-.01.136-.02h.041c.002 0 .002 0 .074.49.039.26.056.39.064.45.007.05.006.05.005.05h-.047a.496.496 0 0 1-.145.02c-.127.02-.317.04-.568.07-.502.06-1.25.13-2.242.21-1.983.16-4.936.32-8.829.36-7.786.07-19.331-.36-34.387-2.41-30.114-4.09-74.271-14.6-130.5-40.297-112.457-51.39-273.184-163.492-466.411-406.321C56.455 341.066-104.153 229.077-216.435 177.768c-56.141-25.655-100.204-36.142-130.219-40.218-15.008-2.038-26.504-2.473-34.243-2.399-3.87.037-6.8.201-8.76.355-.98.077-1.718.152-2.209.207-.246.028-.43.051-.552.066l-.107.015-.029.004-.033.004-.008.001Zm-6.762 9.071-.074-.494c-.072-.495-.07-.495-.068-.496l.01-.001.037-.005.144-.019c.128-.017.317-.04.568-.069a69.556 69.556 0 0 1 2.243-.21c1.982-.156 4.936-.321 8.829-.358 7.786-.074 19.33.364 34.387 2.408 30.113 4.089 74.271 14.604 130.5 40.299 112.457 51.39 273.183 163.492 466.411 406.321 193.154 242.736 353.762 354.725 466.044 406.035 56.141 25.655 100.204 36.145 130.219 40.215 15.007 2.04 26.504 2.47 34.243 2.4 3.869-.04 6.8-.2 8.76-.35.503-.04.942-.08 1.317-.12.355-.03.653-.06.892-.09.172-.02.313-.04.425-.05l.126-.02.064-.01.073-.01h.041l.074.49c.04.28.057.4.064.46.006.04.005.04.004.04h-.01l-.037.01-.088.01h-.056c-.128.02-.317.04-.568.07-.503.06-1.251.13-2.243.21-1.982.16-4.936.32-8.829.36-7.786.08-19.33-.36-34.387-2.41-30.113-4.09-74.271-14.6-130.5-40.296-112.457-51.39-273.183-163.493-466.411-406.321C49.693 350.136-110.915 238.148-223.197 186.838c-56.141-25.655-100.204-36.142-130.219-40.217-15.007-2.038-26.504-2.473-34.243-2.399-3.869.036-6.8.2-8.76.355-.98.077-1.718.152-2.209.207-.245.028-.429.05-.551.066l-.137.018-.033.005-.008.001Z" clip-rule="evenodd"/><defs><radialGradient id="a" cx="0" cy="0" r="1" gradientTransform="matrix(838.00066 672.99959 -705.94231 879.02003 4.5 3)" gradientUnits="userSpaceOnUse"><stop offset=".102" stop-color="#10B981" stop-opacity="0"/><stop offset=".707" stop-color="#BEF264" stop-opacity=".34"/><stop offset="1" stop-color="#BEF264" stop-opacity=".16"/></radialGradient></defs></svg>