<svg width="31" height="31" viewBox="0 0 31 31" fill="none" xmlns="http://www.w3.org/2000/svg">
<g clipPath="url(#clip0_118_350)">
<path d="M29.1396 20.0439C29.4509 20.1607 29.7331 20.3553 29.9861 20.6278C30.2391 20.9002 30.4337 21.2018 30.5699 21.5326C30.7061 21.8635 30.7742 22.1846 30.7742 22.4959C30.7742 22.6905 30.7548 22.8851 30.7158 23.0797L29.4315 28.5675C29.3147 29.1513 29.0033 29.6475 28.4974 30.0562C27.9914 30.4649 27.4465 30.6692 26.8627 30.6692C23.321 30.6692 19.9544 29.9881 16.7629 28.6259C13.5714 27.2637 10.8178 25.4247 8.50207 23.1089C6.18631 20.7932 4.3376 18.0298 2.95593 14.8189C1.57426 11.608 0.883423 8.2511 0.883423 4.74827V4.68989C0.883423 4.10608 1.08775 3.5612 1.49642 3.05524C1.90508 2.54927 2.40131 2.23791 2.98512 2.12115L8.47288 0.836779C8.66748 0.797859 8.86208 0.778399 9.05669 0.778399C9.56265 0.778399 10.0492 0.93408 10.5162 1.24544C10.9832 1.5568 11.3141 1.94601 11.5087 2.41305L14.019 8.30948C14.1747 8.65976 14.2525 9.01004 14.2525 9.36032C14.2525 10.2166 13.9217 10.9171 13.2601 11.462L10.9249 13.3302C11.3919 14.1864 12.0341 15.0913 12.8514 16.0449C13.6687 16.9984 14.5542 17.8839 15.5077 18.7012C16.4613 19.5185 17.3662 20.1607 18.2224 20.6278L20.0906 18.2925C20.6355 17.6309 21.336 17.3001 22.1923 17.3001C22.5426 17.3001 22.8929 17.3584 23.2431 17.4752L29.1396 20.0439ZM26.746 27.8669L27.972 22.5543L22.1923 20.1023L18.9814 24.0722C16.1013 22.7489 13.7952 21.231 12.0633 19.5185C10.3313 17.806 8.8037 15.4903 7.48041 12.5712L11.4503 9.36032L8.99831 3.58066L3.68568 4.80665C3.68568 7.95919 4.29868 10.9463 5.52467 13.768C6.75066 16.5898 8.39504 19.032 10.4578 21.0948C12.5206 23.1576 14.9628 24.802 17.7846 26.0279C20.6063 27.2539 23.5934 27.8669 26.746 27.8669Z" fill="#191919"/>
</g>
<defs>
<clipPath id="clip0_118_350">
<rect width="29.8908" height="29.8908" fill="white" transform="matrix(1 0 0 -1 0.883423 30.6692)"/>
</clipPath>
</defs>
</svg>
