<svg width="33" height="31" viewBox="0 0 33 31" fill="none" xmlns="http://www.w3.org/2000/svg">
<path d="M21.8158 5.94533C21.8158 5.68011 21.9212 5.42576 22.1087 5.23822C22.2963 5.05068 22.5506 4.94533 22.8158 4.94533H24.8158V2.94533C24.8158 2.68011 24.9212 2.42576 25.1087 2.23822C25.2963 2.05068 25.5506 1.94533 25.8158 1.94533C26.081 1.94533 26.3354 2.05068 26.5229 2.23822C26.7105 2.42576 26.8158 2.68011 26.8158 2.94533V4.94533H28.8158C29.081 4.94533 29.3354 5.05068 29.5229 5.23822C29.7105 5.42576 29.8158 5.68011 29.8158 5.94533C29.8158 6.21054 29.7105 6.4649 29.5229 6.65243C29.3354 6.83997 29.081 6.94533 28.8158 6.94533H26.8158V8.94533C26.8158 9.21054 26.7105 9.4649 26.5229 9.65243C26.3354 9.83997 26.081 9.94533 25.8158 9.94533C25.5506 9.94533 25.2963 9.83997 25.1087 9.65243C24.9212 9.4649 24.8158 9.21054 24.8158 8.94533V6.94533H22.8158C22.5506 6.94533 22.2963 6.83997 22.1087 6.65243C21.9212 6.4649 21.8158 6.21054 21.8158 5.94533ZM29.6358 12.7803C30.0927 15.496 29.6747 18.2866 28.4421 20.7493C27.2096 23.2119 25.2263 25.2191 22.7786 26.4811C20.3309 27.7431 17.5455 28.1945 14.8245 27.7702C12.1035 27.346 9.58778 26.0679 7.64051 24.1206C5.69324 22.1734 4.4152 19.6576 3.99092 16.9367C3.56665 14.2157 4.01809 11.4303 5.28006 8.98257C6.54203 6.53489 8.54924 4.55159 11.0119 3.31904C13.4745 2.0865 16.2651 1.66847 18.9808 2.12533C19.2404 2.17123 19.4714 2.31778 19.6235 2.53309C19.7756 2.7484 19.8365 3.01506 19.793 3.27505C19.7495 3.53505 19.6051 3.76736 19.3912 3.92144C19.1773 4.07552 18.9112 4.13891 18.6508 4.09783C17.0735 3.83248 15.4573 3.91405 13.9147 4.33683C12.3721 4.75962 10.9401 5.51348 9.71848 6.54595C8.49684 7.57842 7.51486 8.86469 6.84088 10.3153C6.16689 11.7658 5.81709 13.3458 5.81583 14.9453C5.81346 17.6381 6.80314 20.2373 8.59583 22.2466C9.71112 20.6304 11.2794 19.3801 13.1033 18.6528C12.1236 17.8811 11.4086 16.8233 11.0579 15.6264C10.7072 14.4296 10.7382 13.1532 11.1466 11.9748C11.5549 10.7963 12.3203 9.77443 13.3364 9.05119C14.3525 8.32795 15.5686 7.9393 16.8158 7.9393C18.063 7.9393 19.2792 8.32795 20.2952 9.05119C21.3113 9.77443 22.0767 10.7963 22.4851 11.9748C22.8934 13.1532 22.9244 14.4296 22.5737 15.6264C22.223 16.8233 21.5081 17.8811 20.5283 18.6528C22.3523 19.3801 23.9205 20.6304 25.0358 22.2466C26.8285 20.2373 27.8182 17.6381 27.8158 14.9453C27.8159 14.3305 27.7649 13.7167 27.6633 13.1103C27.6403 12.9802 27.6433 12.8469 27.6721 12.718C27.701 12.5891 27.7551 12.4671 27.8313 12.3592C27.9075 12.2513 28.0043 12.1596 28.1162 12.0893C28.2281 12.0191 28.3528 11.9717 28.483 11.9499C28.6133 11.9281 28.7467 11.9323 28.8753 11.9623C29.0039 11.9924 29.1254 12.0476 29.2326 12.1248C29.3397 12.202 29.4306 12.2997 29.4998 12.4122C29.569 12.5247 29.6152 12.6498 29.6358 12.7803ZM16.8158 17.9453C17.607 17.9453 18.3803 17.7107 19.0381 17.2712C19.6959 16.8317 20.2086 16.207 20.5113 15.4761C20.8141 14.7452 20.8933 13.9409 20.739 13.165C20.5846 12.389 20.2037 11.6763 19.6443 11.1169C19.0848 10.5575 18.3721 10.1765 17.5962 10.0222C16.8203 9.86784 16.016 9.94706 15.2851 10.2498C14.5542 10.5526 13.9295 11.0652 13.49 11.723C13.0504 12.3808 12.8158 13.1542 12.8158 13.9453C12.8158 15.0062 13.2373 16.0236 13.9874 16.7738C14.7375 17.5239 15.755 17.9453 16.8158 17.9453ZM16.8158 25.9453C19.2575 25.9478 21.63 25.1338 23.5558 23.6328C22.8324 22.5014 21.8358 21.5703 20.6579 20.9254C19.48 20.2805 18.1587 19.9424 16.8158 19.9424C15.4729 19.9424 14.1516 20.2805 12.9737 20.9254C11.7958 21.5703 10.7992 22.5014 10.0758 23.6328C12.0017 25.1338 14.3741 25.9478 16.8158 25.9453Z" fill="white"/>
</svg>
