<svg width="31" height="31" viewBox="0 0 31 31" fill="none" xmlns="http://www.w3.org/2000/svg">
<g clipPath="url(#clip0_118_343)">
<path d="M30.1593 28.1592C30.5096 28.4706 30.5096 28.8014 30.1593 29.1517L28.875 30.4361C28.5247 30.7864 28.1939 30.7864 27.8825 30.4361L20.8185 23.372C20.6628 23.2164 20.585 23.0607 20.585 22.905V22.0877C18.2887 24.0726 15.6421 25.0651 12.6452 25.0651C9.29806 25.0651 6.43742 23.878 4.06328 21.5039C1.68914 19.1297 0.502075 16.2691 0.502075 12.9219C0.502075 9.5748 1.68914 6.71416 4.06328 4.34002C6.43742 1.96588 9.29806 0.778809 12.6452 0.778809C15.9924 0.778809 18.853 1.96588 21.2271 4.34002C23.6013 6.71416 24.7883 9.5748 24.7883 12.9219C24.7883 15.9188 23.7959 18.5654 21.8109 20.8617H22.6283C22.8229 20.8617 22.9785 20.9395 23.0953 21.0952L30.1593 28.1592ZM6.04822 19.5189C6.04822 19.5189 6.50553 19.9762 7.42016 20.8909C8.33479 21.8055 10.0765 22.2628 12.6452 22.2628C15.214 22.2628 17.4129 21.3482 19.2422 19.5189C21.0715 17.6897 21.9861 15.4907 21.9861 12.9219C21.9861 10.3532 21.0715 8.15421 19.2422 6.32495C17.4129 4.4957 15.214 3.58107 12.6452 3.58107C10.0765 3.58107 7.87747 4.4957 6.04822 6.32495C4.21896 8.15421 3.30434 10.3532 3.30434 12.9219C3.30434 15.4907 4.21896 17.6897 6.04822 19.5189Z" fill="#191919"/>
</g>
<defs>
<clipPath id="clip0_118_343">
<rect width="29.8908" height="29.8908" fill="white" transform="matrix(1 0 0 -1 0.502197 30.6692)"/>
</clipPath>
</defs>
</svg>
