<svg width="22" height="19" viewBox="0 0 22 19" fill="none" xmlns="http://www.w3.org/2000/svg">
<path opacity="0.3" d="M21.5894 9.9878L13.4374 18.1398C13.2674 18.3098 13.0369 18.4053 12.7965 18.4053C12.5562 18.4053 12.3257 18.3098 12.1557 18.1398C11.9857 17.9699 11.8903 17.7394 11.8903 17.499C11.8903 17.2586 11.9857 17.0281 12.1557 16.8581L18.7622 10.2527H1.02138C0.781154 10.2527 0.550765 10.1573 0.380898 9.98744C0.211031 9.81757 0.115601 9.58718 0.115601 9.34695C0.115601 9.10673 0.211031 8.87634 0.380898 8.70647C0.550765 8.5366 0.781154 8.44117 1.02138 8.44117H18.7622L12.1557 1.83576C11.9857 1.6658 11.8903 1.43528 11.8903 1.19492C11.8903 0.954559 11.9857 0.724041 12.1557 0.55408C12.3257 0.384119 12.5562 0.288635 12.7965 0.288635C13.0369 0.288635 13.2674 0.384119 13.4374 0.55408L21.5894 8.70611C21.6736 8.79024 21.7404 8.89013 21.786 9.00009C21.8316 9.11005 21.8551 9.22792 21.8551 9.34695C21.8551 9.46599 21.8316 9.58385 21.786 9.69382C21.7404 9.80377 21.6736 9.90367 21.5894 9.9878Z" fill="#E32C06"/>
</svg>
