<svg width="1440" height="1371" fill="none" xmlns="http://www.w3.org/2000/svg"><g opacity=".4"><path fill="#FBE8D6" d="M0 3h1440v1320H0z"/><path stroke="#D5DAE1" d="M1464 675.5H-24M1464 699.5H-24M1464 723.5H-24M1464 747.5H-24M1464 771.5H-24M1464 795.5H-24M1464 819.5H-24M1464 843.5H-24M1464 867.5H-24M1464 891.5H-24M1464 915.5H-24M1464 939.5H-24M1464 963.5H-24M1464 987.5H-24M1464 1011.5H-24M1464 1035.5H-24M1464 1059.5H-24M1464 1083.5H-24M1464 1107.5H-24M1464 1131.5H-24M1464 1155.5H-24M1464 1179.5H-24M1464 1203.5H-24M1464 1227.5H-24M1464 1251.5H-24M1464 1275.5H-24M1464 1299.5H-24M1464 1323.5H-24M1464 1347.5H-24M24.5 651v720M24.5 651v720M48.5 651v720M72.5 651v720M96.5 651v720M120.5 651v720M144.5 651v720M168.5 651v720M192.5 651v720M216.5 651v720M240.5 651v720M264.5 651v720M288.5 651v720M312.5 651v720M336.5 651v720M360.5 651v720M384.5 651v720M408.5 651v720M432.5 651v720M456.5 651v720M480.5 651v720M504.5 651v720M528.5 651v720M552.5 651v720M576.5 651v720M600.5 651v720M624.5 651v720M648.5 651v720M672.5 651v720M696.5 651v720M720.5 651v720M744.5 651v720M768.5 651v720M792.5 651v720M816.5 651v720M840.5 651v720M864.5 651v720M888.5 651v720M912.5 651v720M936.5 651v720M960.5 651v720M984.5 651v720M1008.5 651v720M1032.5 651v720M1056.5 651v720M1080.5 651v720M1104.5 651v720M1128.5 651v720M1152.5 651v720M1176.5 651v720M1200.5 651v720M1224.5 651v720M1248.5 651v720M1272.5 651v720M1296.5 651v720M1320.5 651v720M1344.5 651v720M1368.5 651v720M1392.5 651v720M1416.5 651v720M.5-45v720M1464 3.5H-24M1464 27.5H-24M1464 51.5H-24M1464 75.5H-24M1464 99.5H-24M1464 123.5H-24M1464 147.5H-24M1464 171.5H-24M1464 195.5H-24M1464 219.5H-24M1464 243.5H-24M1464 267.5H-24M1464 291.5H-24M1464 315.5H-24M1464 339.5H-24M1464 363.5H-24M1464 387.5H-24M1464 411.5H-24M1464 435.5H-24M1464 459.5H-24M1464 483.5H-24M1464 507.5H-24M1464 531.5H-24M1464 555.5H-24M1464 579.5H-24M1464 603.5H-24M1464 627.5H-24M1464 651.5H-24M24.5-45v720M24.5-45v720M48.5-45v720M72.5-45v720M96.5-45v720M120.5-45v720M144.5-45v720M168.5-45v720M192.5-45v720M216.5-45v720M240.5-45v720M264.5-45v720M288.5-45v720M312.5-45v720M336.5-45v720M360.5-45v720M384.5-45v720M408.5-45v720M432.5-45v720M456.5-45v720M480.5-45v720M504.5-45v720M528.5-45v720M552.5-45v720M576.5-45v720M600.5-45v720M624.5-45v720M648.5-45v720M672.5-45v720M696.5-45v720M720.5-45v720M744.5-45v720M768.5-45v720M792.5-45v720M816.5-45v720M840.5-45v720M864.5-45v720M888.5-45v720M912.5-45v720M936.5-45v720M960.5-45v720M984.5-45v720M1008.5-45v720M1032.5-45v720M1056.5-45v720M1080.5-45v720M1104.5-45v720M1128.5-45v720M1152.5-45v720M1176.5-45v720M1200.5-45v720M1224.5-45v720M1248.5-45v720M1272.5-45v720M1296.5-45v720M1320.5-45v720M1344.5-45v720M1368.5-45v720M1392.5-45v720M1416.5-45v720"/></g></svg>