<svg width="56" height="143" viewBox="0 0 56 143" fill="none" xmlns="http://www.w3.org/2000/svg">
<path d="M5.96046e-07 35.8V13.4L55.8 0.799995V143H32.4V26.8L5.96046e-07 35.8Z" fill="#FFDED0"/>
<path d="M9.53674e-07 35.8H-2V38.4313L0.535289 37.727L9.53674e-07 35.8ZM9.53674e-07 13.4L-0.440521 11.4491L-2 11.8013V13.4H9.53674e-07ZM55.8 0.799995H57.8V-1.70197L55.3595 -1.15089L55.8 0.799995ZM55.8 143V145H57.8V143H55.8ZM32.4 143H30.4V145H32.4V143ZM32.4 26.8H34.4V24.1687L31.8647 24.873L32.4 26.8ZM2 35.8V13.4H-2V35.8H2ZM0.440522 15.3509L56.2405 2.75088L55.3595 -1.15089L-0.440521 11.4491L0.440522 15.3509ZM53.8 0.799995V143H57.8V0.799995H53.8ZM55.8 141H32.4V145H55.8V141ZM34.4 143V26.8H30.4V143H34.4ZM31.8647 24.873L-0.535287 33.873L0.535289 37.727L32.9353 28.727L31.8647 24.873Z" fill="#FF8F5F"/>
</svg>
