<svg width="107" height="144" viewBox="0 0 107 144" fill="none" xmlns="http://www.w3.org/2000/svg">
<path d="M0.158203 143.219L64.9582 75.0187C68.2915 71.4187 71.1582 67.9521 73.5582 64.6187C75.9582 61.2854 77.7582 57.9521 78.9582 54.6187C80.1582 51.2854 80.7582 47.7521 80.7582 44.0187C80.7582 41.3521 80.2249 38.7521 79.1582 36.2187C78.2249 33.5521 76.6915 31.1521 74.5582 29.0187C72.5582 26.8854 70.0915 25.2187 67.1582 24.0187C64.2249 22.6854 60.8249 22.0187 56.9582 22.0187C51.6249 22.0187 47.0249 23.2854 43.1582 25.8187C39.2915 28.2187 36.2915 31.7521 34.1582 36.4187C32.1582 41.0854 31.1582 46.4854 31.1582 52.6187H7.7582C7.7582 42.6187 9.62487 33.7521 13.3582 26.0187C17.2249 18.1521 22.8249 12.0187 30.1582 7.61874C37.6249 3.08541 46.6915 0.818748 57.3582 0.818748C65.4915 0.818748 72.5582 2.15208 78.5582 4.81874C84.5582 7.35208 89.4915 10.6854 93.3582 14.8187C97.3582 18.9521 100.292 23.4854 102.158 28.4187C104.158 33.3521 105.158 38.1521 105.158 42.8187C105.158 50.1521 103.358 57.2187 99.7582 64.0187C96.2915 70.8187 91.6915 76.8854 85.9582 82.2187L46.1582 121.219H106.958V143.219H0.158203Z" fill="#FFDED0"/>
<path d="M0.158204 143.219L-1.29169 141.841L-4.50091 145.219H0.158204V143.219ZM64.9582 75.0188L66.4081 76.3964L66.417 76.387L66.4257 76.3776L64.9582 75.0188ZM73.5582 64.6187L75.1813 65.7874L73.5582 64.6187ZM78.9582 54.6187L80.84 55.2962L80.84 55.2962L78.9582 54.6187ZM79.1582 36.2187L77.2705 36.8794L77.2909 36.9378L77.3149 36.9949L79.1582 36.2187ZM74.5582 29.0187L73.0991 30.3866L73.1212 30.4101L73.144 30.433L74.5582 29.0187ZM67.1582 24.0187L66.3306 25.8395L66.3655 25.8553L66.4009 25.8698L67.1582 24.0187ZM43.1582 25.8187L44.2129 27.518L44.2338 27.5051L44.2543 27.4917L43.1582 25.8187ZM34.1582 36.4187L32.3393 35.5872L32.3293 35.6089L32.3199 35.6309L34.1582 36.4187ZM31.1582 52.6188V54.6188H33.1582V52.6188H31.1582ZM7.7582 52.6188H5.7582V54.6188H7.7582V52.6188ZM13.3582 26.0187L11.5633 25.1365L11.5602 25.1429L11.5571 25.1492L13.3582 26.0187ZM30.1582 7.61874L31.1872 9.33376L31.1962 9.32832L30.1582 7.61874ZM78.5582 4.81874L77.7459 6.64637L77.763 6.65397L77.7803 6.66124L78.5582 4.81874ZM93.3582 14.8187L91.8977 16.1851L91.9092 16.1974L91.921 16.2096L93.3582 14.8187ZM102.158 28.4187L100.288 29.1265L100.296 29.1484L100.305 29.1702L102.158 28.4187ZM99.7582 64.0187L97.9906 63.083L97.9834 63.0966L97.9764 63.1104L99.7582 64.0187ZM85.9582 82.2188L84.596 80.7544L84.577 80.7721L84.5584 80.7903L85.9582 82.2188ZM46.1582 121.219L44.7584 119.79L41.2596 123.219H46.1582V121.219ZM106.958 121.219H108.958V119.219H106.958V121.219ZM106.958 143.219V145.219H108.958V143.219H106.958ZM1.6081 144.596L66.4081 76.3964L63.5083 73.6411L-1.29169 141.841L1.6081 144.596ZM66.4257 76.3776C69.8044 72.7286 72.7252 69.1985 75.1813 65.7874L71.9351 63.4501C69.5912 66.7056 66.7787 70.1089 63.4907 73.6599L66.4257 76.3776ZM75.1813 65.7874C77.673 62.3266 79.5679 58.8297 80.84 55.2962L77.0764 53.9413C75.9485 57.0744 74.2434 60.2443 71.9351 63.4501L75.1813 65.7874ZM80.84 55.2962C82.1223 51.7341 82.7582 47.9705 82.7582 44.0187H78.7582C78.7582 47.5337 78.1941 50.8368 77.0764 53.9413L80.84 55.2962ZM82.7582 44.0187C82.7582 41.0772 82.1683 38.2139 81.0015 35.4426L77.3149 36.9949C78.2814 39.2902 78.7582 41.6269 78.7582 44.0187H82.7582ZM81.0459 35.558C80.0067 32.5888 78.3035 29.9356 75.9724 27.6045L73.144 30.433C75.0796 32.3686 76.4431 34.5153 77.2705 36.8794L81.0459 35.558ZM76.0173 27.6509C73.8047 25.2908 71.0921 23.4672 67.9155 22.1677L66.4009 25.8698C69.0909 26.9703 71.3117 28.48 73.0991 30.3866L76.0173 27.6509ZM67.9858 22.198C64.7459 20.7253 61.0542 20.0187 56.9582 20.0187V24.0187C60.5955 24.0187 63.7039 24.6455 66.3306 25.8395L67.9858 22.198ZM56.9582 20.0187C51.2969 20.0187 46.3023 21.3678 42.0622 24.1458L44.2543 27.4917C47.7474 25.2031 51.9529 24.0187 56.9582 24.0187V20.0187ZM42.1035 24.1195C37.8606 26.753 34.6148 30.6096 32.3393 35.5872L35.9772 37.2503C37.9683 32.8946 40.7224 29.6845 44.2129 27.518L42.1035 24.1195ZM32.3199 35.6309C30.1935 40.5926 29.1582 46.2697 29.1582 52.6188H33.1582C33.1582 46.7012 34.1229 41.5782 35.9965 37.2066L32.3199 35.6309ZM31.1582 50.6188H7.7582V54.6188H31.1582V50.6188ZM9.7582 52.6188C9.7582 42.8705 11.5768 34.3092 15.1593 26.8882L11.5571 25.1492C7.67297 33.1949 5.7582 42.367 5.7582 52.6188H9.7582ZM15.1531 26.901C18.8544 19.3707 24.1926 13.5305 31.1872 9.33373L29.1292 5.90376C21.4571 10.507 15.5953 16.9334 11.5633 25.1365L15.1531 26.901ZM31.1962 9.32832C38.2873 5.02298 46.9766 2.81875 57.3582 2.81875V-1.18125C46.4064 -1.18125 36.9624 1.14784 29.1202 5.90916L31.1962 9.32832ZM57.3582 2.81875C65.2767 2.81875 72.055 4.11707 77.7459 6.64637L79.3705 2.99112C73.0614 0.187088 65.7064 -1.18125 57.3582 -1.18125V2.81875ZM77.7803 6.66124C83.5606 9.10183 88.2494 12.2852 91.8977 16.1851L94.8187 13.4524C90.7337 9.08562 85.5558 5.60233 79.3362 2.97624L77.7803 6.66124ZM91.921 16.2096C95.7488 20.165 98.5258 24.4703 100.288 29.1265L104.029 27.711C102.057 22.5005 98.9676 17.7392 94.7954 13.4279L91.921 16.2096ZM100.305 29.1702C102.221 33.8981 103.158 38.4433 103.158 42.8187H107.158C107.158 37.8608 106.095 32.806 104.012 27.6673L100.305 29.1702ZM103.158 42.8187C103.158 49.8097 101.446 56.5566 97.9906 63.083L101.526 64.9545C105.271 57.8809 107.158 50.4945 107.158 42.8187H103.158ZM97.9764 63.1104C94.6188 69.6965 90.1625 75.5762 84.596 80.7544L87.3204 83.6831C93.2206 78.1946 97.9643 71.941 101.54 64.9271L97.9764 63.1104ZM84.5584 80.7903L44.7584 119.79L47.558 122.647L87.358 83.6472L84.5584 80.7903ZM46.1582 123.219H106.958V119.219H46.1582V123.219ZM104.958 121.219V143.219H108.958V121.219H104.958ZM106.958 141.219H0.158204V145.219H106.958V141.219Z" fill="#FF8F5F"/>
</svg>
