<svg width="97" height="146" viewBox="0 0 97 146" fill="none" xmlns="http://www.w3.org/2000/svg">
<path d="M41.942 74.1417V61.5417C46.2087 61.5417 50.0087 61.0084 53.342 59.9417C56.6753 58.7417 59.4753 57.1417 61.742 55.1417C64.142 53.1417 65.942 50.8084 67.142 48.1417C68.4753 45.3417 69.142 42.475 69.142 39.5417C69.142 35.8084 68.4087 32.5417 66.942 29.7417C65.4753 26.8084 63.342 24.5417 60.542 22.9417C57.742 21.3417 54.2753 20.5417 50.142 20.5417C44.0087 20.5417 38.8753 22.4084 34.742 26.1417C30.742 29.7417 28.742 34.3417 28.742 39.9417H6.54199C6.54199 32.2084 8.34199 25.4084 11.942 19.5417C15.6753 13.675 20.8087 9.07502 27.342 5.74169C33.8753 2.27503 41.4087 0.541694 49.942 0.541694C59.0087 0.541694 66.742 2.27503 73.142 5.74169C79.542 9.20836 84.4087 13.8084 87.742 19.5417C91.2087 25.1417 92.942 31.4084 92.942 38.3417C92.942 45.4084 90.742 51.675 86.342 57.1417C81.942 62.6084 75.8753 66.8084 68.142 69.7417C60.542 72.675 51.8087 74.1417 41.942 74.1417ZM48.942 145.142C41.4753 145.142 34.742 144.075 28.742 141.942C22.742 139.675 17.6753 136.608 13.542 132.742C9.40866 128.742 6.20866 124.208 3.94199 119.142C1.67533 113.942 0.541993 108.475 0.541993 102.742H24.142C24.142 107.275 25.2087 111.208 27.342 114.542C29.6087 117.742 32.6753 120.275 36.542 122.142C40.4087 123.875 44.6753 124.742 49.342 124.742C54.142 124.742 58.2753 123.875 61.742 122.142C65.342 120.408 68.142 117.942 70.142 114.742C72.142 111.408 73.142 107.408 73.142 102.742C73.142 99.0084 72.4087 95.675 70.942 92.7417C69.4753 89.8084 67.342 87.3417 64.542 85.3417C61.8753 83.3417 58.6087 81.8084 54.742 80.7417C50.8753 79.675 46.6087 79.1417 41.942 79.1417V65.7417C49.6753 65.7417 56.8753 66.5417 63.542 68.1417C70.2087 69.6084 76.0087 71.9417 80.942 75.1417C86.0087 78.2084 89.942 82.275 92.742 87.3417C95.542 92.275 96.942 98.275 96.942 105.342C96.942 113.208 94.942 120.142 90.942 126.142C86.942 132.142 81.342 136.808 74.142 140.142C66.942 143.475 58.542 145.142 48.942 145.142Z" fill="#FFDED0"/>
<path d="M41.942 74.1417H39.942V76.1417H41.942V74.1417ZM41.942 61.5417V59.5417H39.942V61.5417H41.942ZM53.342 59.9417L53.9515 61.8465L53.9857 61.8356L54.0194 61.8235L53.342 59.9417ZM61.742 55.1417L60.4616 53.6053L60.4399 53.6233L60.4188 53.642L61.742 55.1417ZM67.142 48.1417L65.3363 47.2818L65.327 47.3013L65.3182 47.321L67.142 48.1417ZM66.942 29.7417L65.1531 30.6361L65.1616 30.653L65.1703 30.6697L66.942 29.7417ZM60.542 22.9417L61.5343 21.2052H61.5343L60.542 22.9417ZM34.742 26.1417L36.0799 27.6283L36.0826 27.6259L34.742 26.1417ZM28.742 39.9417V41.9417H30.742V39.9417H28.742ZM6.54199 39.9417H4.54199V41.9417H6.54199V39.9417ZM11.942 19.5417L10.2547 18.4679L10.2459 18.4817L10.2373 18.4957L11.942 19.5417ZM27.342 5.74168L28.2509 7.52321L28.2652 7.51591L28.2794 7.50838L27.342 5.74168ZM73.142 5.74168L74.0946 3.9831L73.142 5.74168ZM87.742 19.5417L86.013 20.5469L86.0269 20.5709L86.0415 20.5944L87.742 19.5417ZM86.342 57.1417L84.784 55.8877L86.342 57.1417ZM68.142 69.7417L67.4327 67.8717L67.4218 67.8759L68.142 69.7417ZM28.742 141.942L28.0352 143.813L28.0535 143.82L28.072 143.826L28.742 141.942ZM13.542 132.742L12.1511 134.179L12.1633 134.191L12.1757 134.202L13.542 132.742ZM3.94199 119.142L2.1086 119.941L2.11244 119.95L2.11636 119.958L3.94199 119.142ZM0.541993 102.742V100.742H-1.45801V102.742H0.541993ZM24.142 102.742H26.142V100.742H24.142V102.742ZM27.342 114.542L25.6575 115.62L25.6828 115.659L25.7099 115.698L27.342 114.542ZM36.542 122.142L35.6725 123.943L35.698 123.955L35.7239 123.967L36.542 122.142ZM61.742 122.142L60.8744 120.34L60.8609 120.346L60.8476 120.353L61.742 122.142ZM70.142 114.742L71.838 115.802L71.8476 115.786L71.857 115.771L70.142 114.742ZM70.942 92.7417L69.1531 93.6361L70.942 92.7417ZM64.542 85.3417L63.342 86.9417L63.3606 86.9557L63.3795 86.9692L64.542 85.3417ZM54.742 80.7417L54.2101 82.6697L54.742 80.7417ZM41.942 79.1417H39.942V81.1417H41.942V79.1417ZM41.942 65.7417V63.7417H39.942V65.7417H41.942ZM63.542 68.1417L63.0752 70.0865L63.0937 70.0909L63.1123 70.095L63.542 68.1417ZM80.942 75.1417L79.8536 76.8196L79.8797 76.8366L79.9064 76.8527L80.942 75.1417ZM92.742 87.3417L90.9915 88.3091L90.997 88.319L91.0026 88.3289L92.742 87.3417ZM90.942 126.142L92.6061 127.251L90.942 126.142ZM74.142 140.142L73.3018 138.327L74.142 140.142ZM43.942 74.1417V61.5417H39.942V74.1417H43.942ZM41.942 63.5417C46.3719 63.5417 50.3835 62.9883 53.9515 61.8465L52.7324 58.0368C49.6338 59.0284 46.0454 59.5417 41.942 59.5417V63.5417ZM54.0194 61.8235C57.5501 60.5524 60.5798 58.8344 63.0652 56.6414L60.4188 53.642C58.3709 55.449 55.8006 56.9309 52.6646 58.0599L54.0194 61.8235ZM63.0224 56.6781C65.6392 54.4975 67.6329 51.9245 68.9658 48.9624L65.3182 47.321C64.2511 49.6922 62.6448 51.7859 60.4616 53.6053L63.0224 56.6781ZM68.9477 49.0016C70.4015 45.9487 71.142 42.7895 71.142 39.5417H67.142C67.142 42.1606 66.5492 44.7347 65.3363 47.2818L68.9477 49.0016ZM71.142 39.5417C71.142 35.5435 70.3553 31.9476 68.7137 28.8137L65.1703 30.6697C66.4621 33.1357 67.142 36.0732 67.142 39.5417H71.142ZM68.7309 28.8473C67.0908 25.5671 64.6832 23.0046 61.5343 21.2052L59.5497 24.6782C62.0008 26.0788 63.8599 28.0496 65.1531 30.6361L68.7309 28.8473ZM61.5343 21.2052C58.3584 19.3904 54.5274 18.5417 50.142 18.5417V22.5417C54.0233 22.5417 57.1256 23.293 59.5497 24.6782L61.5343 21.2052ZM50.142 18.5417C43.5676 18.5417 37.9407 20.5575 33.4014 24.6575L36.0826 27.6259C39.81 24.2592 44.4498 22.5417 50.142 22.5417V18.5417ZM33.4041 24.6551C28.9636 28.6515 26.742 33.8008 26.742 39.9417H30.742C30.742 34.8825 32.5204 30.8319 36.0799 27.6283L33.4041 24.6551ZM28.742 37.9417H6.54199V41.9417H28.742V37.9417ZM8.54199 39.9417C8.54199 32.5308 10.2629 26.102 13.6466 20.5877L10.2373 18.4957C6.42111 24.7147 4.54199 31.8859 4.54199 39.9417H8.54199ZM13.6293 20.6154C17.1604 15.0667 22.0175 10.7036 28.2509 7.52321L26.4331 3.96017C19.5999 7.44649 14.1903 12.2834 10.2547 18.4679L13.6293 20.6154ZM28.2794 7.50838C34.4825 4.21699 41.6849 2.54169 49.942 2.54169V-1.45831C41.1324 -1.45831 33.2682 0.333061 26.4046 3.97499L28.2794 7.50838ZM49.942 2.54169C58.7564 2.54169 66.1453 4.22637 72.1894 7.50027L74.0946 3.9831C67.3387 0.323677 59.2609 -1.45831 49.942 -1.45831V2.54169ZM72.1894 7.50027C78.2989 10.8096 82.8821 15.1618 86.013 20.5469L89.471 18.5364C85.9352 12.4549 80.7851 7.60716 74.0946 3.9831L72.1894 7.50027ZM86.0415 20.5944C89.3018 25.8612 90.942 31.7598 90.942 38.3417H94.942C94.942 31.057 93.1155 24.4222 89.4425 18.489L86.0415 20.5944ZM90.942 38.3417C90.942 44.9557 88.8958 50.7791 84.784 55.8877L87.9 58.3957C92.5882 52.571 94.942 45.8611 94.942 38.3417H90.942ZM84.784 55.8877C80.6441 61.0312 74.8933 65.0418 67.4327 67.8717L68.8513 71.6117C76.8574 68.5749 83.2399 64.1855 87.9 58.3957L84.784 55.8877ZM67.4218 67.8759C60.0945 70.704 51.613 72.1417 41.942 72.1417V76.1417C52.0044 76.1417 60.9895 74.6461 68.8621 71.6075L67.4218 67.8759ZM48.942 143.142C41.6651 143.142 35.1634 142.102 29.412 140.057L28.072 143.826C34.3206 146.048 41.2856 147.142 48.942 147.142V143.142ZM29.4488 140.071C23.6609 137.884 18.827 134.947 14.9083 131.281L12.1757 134.202C16.5237 138.27 21.8231 141.466 28.0352 143.813L29.4488 140.071ZM14.9328 131.304C10.9759 127.475 7.92645 123.151 5.76763 118.325L2.11636 119.958C4.49087 125.266 7.84144 130.008 12.1511 134.179L14.9328 131.304ZM5.77538 118.343C3.61981 113.397 2.54199 108.203 2.54199 102.742H-1.45801C-1.45801 108.747 -0.269162 114.486 2.1086 119.941L5.77538 118.343ZM0.541993 104.742H24.142V100.742H0.541993V104.742ZM22.142 102.742C22.142 107.6 23.2894 111.92 25.6575 115.62L29.0265 113.464C27.1279 110.497 26.142 106.95 26.142 102.742H22.142ZM25.7099 115.698C28.1903 119.199 31.5308 121.943 35.6725 123.943L37.4115 120.341C33.8198 118.607 31.027 116.284 28.974 113.386L25.7099 115.698ZM35.7239 123.967C39.8729 125.827 44.4221 126.742 49.342 126.742V122.742C44.9285 122.742 40.9444 121.923 37.3601 120.317L35.7239 123.967ZM49.342 126.742C54.3799 126.742 58.8337 125.832 62.6364 123.931L60.8476 120.353C57.7169 121.918 53.9041 122.742 49.342 122.742V126.742ZM62.6096 123.944C66.5294 122.056 69.6256 119.342 71.838 115.802L68.446 113.682C66.6584 116.542 64.1546 118.76 60.8744 120.34L62.6096 123.944ZM71.857 115.771C74.0778 112.069 75.142 107.698 75.142 102.742H71.142C71.142 107.119 70.2062 110.747 68.427 113.713L71.857 115.771ZM75.142 102.742C75.142 98.7411 74.3545 95.0945 72.7309 91.8473L69.1531 93.6361C70.4628 96.2555 71.142 99.2757 71.142 102.742H75.142ZM72.7309 91.8473C71.1111 88.6077 68.7564 85.8942 65.7045 83.7142L63.3795 86.9692C65.9276 88.7892 67.8396 91.009 69.1531 93.6361L72.7309 91.8473ZM65.742 83.7417C62.8389 81.5644 59.334 79.9337 55.2738 78.8137L54.2101 82.6697C57.8834 83.683 60.9118 85.119 63.342 86.9417L65.742 83.7417ZM55.2738 78.8137C51.2084 77.6922 46.7598 77.1417 41.942 77.1417V81.1417C46.4575 81.1417 50.5422 81.6579 54.2101 82.6697L55.2738 78.8137ZM43.942 79.1417V65.7417H39.942V79.1417H43.942ZM41.942 67.7417C49.5378 67.7417 56.5795 68.5275 63.0752 70.0865L64.0087 66.1969C57.1712 64.5559 49.8129 63.7417 41.942 63.7417V67.7417ZM63.1123 70.095C69.5817 71.5183 75.1511 73.7693 79.8536 76.8196L82.0304 73.4638C76.8662 70.1141 70.8356 67.6985 63.9717 66.1884L63.1123 70.095ZM79.9064 76.8527C84.6811 79.7426 88.3647 83.5558 90.9915 88.3091L94.4925 86.3743C91.5193 80.9942 87.3363 76.6741 81.9776 73.4307L79.9064 76.8527ZM91.0026 88.3289C93.5946 92.8958 94.942 98.5371 94.942 105.342H98.942C98.942 98.013 97.4894 91.6543 94.4814 86.3545L91.0026 88.3289ZM94.942 105.342C94.942 112.851 93.039 119.391 89.2779 125.032L92.6061 127.251C96.845 120.893 98.942 113.566 98.942 105.342H94.942ZM89.2779 125.032C85.5025 130.695 80.202 135.132 73.3018 138.327L74.9822 141.957C82.482 138.485 88.3815 133.588 92.6061 127.251L89.2779 125.032ZM73.3018 138.327C66.4145 141.515 58.3116 143.142 48.942 143.142V147.142C58.7723 147.142 67.4695 145.435 74.9822 141.957L73.3018 138.327Z" fill="#FF8F5F"/>
</svg>
