<svg width="36" height="34" viewBox="0 0 36 34" fill="none" xmlns="http://www.w3.org/2000/svg">
<path d="M9.48351 28.9388L5.05068 27.9716C4.64769 27.891 4.3253 27.6825 4.08351 27.3462C3.84172 27.0109 3.74769 26.6418 3.80142 26.2388L4.24471 21.685L1.22232 18.2194C0.953664 17.9238 0.819336 17.5746 0.819336 17.1716C0.819336 16.7686 0.953664 16.4194 1.22232 16.1238L4.24471 12.6582L3.80142 8.10445C3.74769 7.70147 3.84172 7.33233 4.08351 6.99705C4.3253 6.66069 4.64769 6.45221 5.05068 6.37162L9.48351 5.40445L11.8208 1.4552C12.0357 1.10595 12.3313 0.877591 12.7074 0.770128C13.0835 0.662665 13.4596 0.676098 13.8357 0.810427L18.0268 2.58356L22.2178 0.810427C22.5939 0.676098 22.9701 0.662665 23.3462 0.770128C23.7223 0.877591 24.0178 1.10595 24.2328 1.4552L26.5701 5.40445L31.0029 6.37162C31.4059 6.45221 31.7283 6.66069 31.9701 6.99705C32.2118 7.33233 32.3059 7.70147 32.2521 8.10445L31.8089 12.6582L34.8312 16.1238C35.0999 16.4194 35.2342 16.7686 35.2342 17.1716C35.2342 17.5746 35.0999 17.9238 34.8312 18.2194L31.8089 21.685L32.2521 26.2388C32.3059 26.6418 32.2118 27.0109 31.9701 27.3462C31.7283 27.6825 31.4059 27.891 31.0029 27.9716L26.5701 28.9388L24.2328 32.888C24.0178 33.2373 23.7223 33.4656 23.3462 33.5731C22.9701 33.6805 22.5939 33.6671 22.2178 33.5328L18.0268 31.7597L13.8357 33.5328C13.4596 33.6671 13.0835 33.6805 12.7074 33.5731C12.3313 33.4656 12.0357 33.2373 11.8208 32.888L9.48351 28.9388ZM15.2059 21.7656C15.5014 22.0612 15.8775 22.2089 16.3342 22.2089C16.791 22.2089 17.1671 22.0612 17.4626 21.7656L24.3133 14.9149C24.6357 14.5925 24.7969 14.2094 24.7969 13.7656C24.7969 13.3228 24.6357 12.9403 24.3133 12.6179C23.991 12.2955 23.6084 12.1343 23.1656 12.1343C22.7218 12.1343 22.3387 12.2955 22.0163 12.6179L16.3342 18.3L13.9969 16.003C13.6746 15.7074 13.292 15.5661 12.8492 15.579C12.4054 15.593 12.0357 15.7477 11.7402 16.0433C11.4447 16.3388 11.2969 16.7149 11.2969 17.1716C11.2969 17.6283 11.4447 18.0044 11.7402 18.3L15.2059 21.7656Z" fill="#34D399"/>
</svg>
