<svg width="37" height="25" viewBox="0 0 37 25" fill="none" xmlns="http://www.w3.org/2000/svg">
<g clipPath="url(#clip0_48_2075)">
<path d="M31.7137 0.446289H5.28517C2.60923 0.446289 0.439941 2.64489 0.439941 5.357V19.6427C0.439941 22.3548 2.60923 24.5534 5.28517 24.5534H31.7137C34.3896 24.5534 36.5589 22.3548 36.5589 19.6427V5.357C36.5589 2.64489 34.3896 0.446289 31.7137 0.446289Z" fill="white" stroke="#D9D9D9" strokeWidth="0.642857"/>
<mask id="mask0_48_2075" style="mask-type:luminance" maskUnits="userSpaceOnUse" x="4" y="6" width="7" height="8">
<path d="M10.5708 6.64648H4.40417V13.7893H10.5708V6.64648Z" fill="white"/>
</mask>
<g mask="url(#mask0_48_2075)">
<path d="M5.94526 9.77002H5.02026V11.8534H5.94526V9.77002Z" fill="#4D4D4D"/>
<path d="M7.94978 9.76953H7.02478V11.8529H7.94978V9.76953Z" fill="#4D4D4D"/>
<path d="M10.5708 12.4482H4.40417V13.3411H10.5708V12.4482Z" fill="#4D4D4D"/>
<path d="M9.95417 9.76953H9.02917V11.8529H9.95417V9.76953Z" fill="#4D4D4D"/>
<path d="M7.48751 7.0918L4.40417 8.57989V9.17513H10.5708V8.57989L7.48751 7.0918Z" fill="#4D4D4D"/>
</g>
<path d="M11.91 12.3014V7.22998H13.7284C14.0666 7.22998 14.3579 7.28474 14.6023 7.39426C14.8513 7.49902 15.0415 7.65141 15.173 7.85141C15.3094 8.04665 15.3775 8.27759 15.3775 8.54426C15.3775 8.78712 15.3258 9.00141 15.2224 9.18712C15.119 9.36808 14.9734 9.51093 14.7855 9.61569C15.0391 9.71569 15.2365 9.87522 15.3775 10.0943C15.5184 10.3086 15.5889 10.5633 15.5889 10.8586C15.5889 11.1538 15.5137 11.4085 15.3634 11.6228C15.213 11.8371 15.0016 12.0038 14.729 12.1228C14.4566 12.2419 14.1347 12.3014 13.7636 12.3014H11.91ZM12.9249 8.10855V9.27283H13.6156C13.8458 9.27283 14.0219 9.22522 14.1441 9.12998C14.271 9.02998 14.3344 8.88474 14.3344 8.69426C14.3344 8.50379 14.271 8.35855 14.1441 8.25855C14.0219 8.15855 13.8458 8.10855 13.6156 8.10855H12.9249ZM12.9249 11.4228H13.7143C13.9774 11.4228 14.1794 11.3657 14.3204 11.2514C14.4659 11.1371 14.5388 10.9728 14.5388 10.7586C14.5388 10.5443 14.4659 10.38 14.3204 10.2657C14.1794 10.1514 13.9774 10.0943 13.7143 10.0943H12.9249V11.4228ZM15.7974 12.3014L17.7848 7.22998H18.8984L20.8928 12.3014H19.8146L19.4058 11.1871H17.2421L16.8334 12.3014H15.7974ZM17.5734 10.2871H19.0746L18.3205 8.26569L17.5734 10.2871ZM21.4629 12.3014V7.22998H22.372L24.6907 10.5871V7.22998H25.7056V12.3014H24.7964L22.4778 8.94426V12.3014H21.4629ZM26.6247 12.3014V7.22998H27.6748V9.47998L29.5283 7.22998H30.7545L28.7531 9.59426L31.0083 12.3014H29.6481L27.6748 9.84426V12.3014H26.6247Z" fill="#4D4D4D"/>
<path d="M5.67799 18.8489V15.7523H4.62085V15.0453H7.52271V15.7523H6.46556V18.8489H5.67799ZM8.08225 18.8489V15.0453H9.28739C9.59396 15.0453 9.85825 15.0953 10.0803 15.1953C10.3058 15.2916 10.4784 15.4328 10.5983 15.6185C10.7181 15.8007 10.778 16.0166 10.778 16.2666C10.778 16.4132 10.7515 16.5541 10.6987 16.6898C10.6458 16.8221 10.5718 16.9435 10.4767 17.0541C10.3815 17.1614 10.267 17.2507 10.1331 17.3221L10.9841 18.8489H10.1173L9.44597 17.531C9.37901 17.5346 9.30678 17.5364 9.22925 17.5364C9.11649 17.5364 8.99315 17.5257 8.85925 17.5041V18.8489H8.08225ZM8.85925 15.7203V16.8398C8.9262 16.8507 8.99315 16.8596 9.06011 16.8666C9.12705 16.8703 9.19753 16.8721 9.27153 16.8721C9.49705 16.8721 9.67149 16.8221 9.79482 16.7221C9.91815 16.6185 9.97982 16.4757 9.97982 16.2935C9.97982 16.1114 9.91815 15.9703 9.79482 15.8703C9.67149 15.7703 9.49705 15.7203 9.27153 15.7203H8.85925ZM11.1578 18.8489L12.6484 15.0453H13.4835L14.9793 18.8489H14.1707L13.8641 18.0132H12.2414L11.9348 18.8489H11.1578ZM12.4898 17.3382H13.6156L13.0501 15.8221L12.4898 17.3382ZM15.4069 18.8489V15.0453H16.0888L17.8278 17.5632V15.0453H18.5889V18.8489H17.907L16.168 16.331V18.8489H15.4069ZM20.4359 18.9291C20.2103 18.9291 20.0024 18.8898 19.8121 18.8114C19.6253 18.7291 19.465 18.6148 19.3311 18.4685C19.2008 18.3185 19.1109 18.1398 19.0615 17.9328L19.7963 17.7721C19.8421 17.9185 19.9213 18.0328 20.0341 18.1148C20.1504 18.1971 20.2879 18.2382 20.4464 18.2382C20.5592 18.2382 20.6579 18.2185 20.7424 18.1791C20.8305 18.1364 20.8974 18.0791 20.9433 18.0078C20.9927 17.9364 21.0173 17.8541 21.0173 17.7614C21.0173 17.6435 20.9732 17.5489 20.8851 17.4773C20.797 17.4023 20.6543 17.3416 20.457 17.2953L20.2879 17.2578C19.9002 17.1721 19.6147 17.0346 19.4315 16.8453C19.2483 16.6523 19.1566 16.4185 19.1566 16.1435C19.1566 15.9721 19.1902 15.8148 19.2571 15.6721C19.3241 15.5291 19.4156 15.406 19.532 15.3023C19.6517 15.1953 19.791 15.1132 19.9495 15.056C20.1081 14.9953 20.279 14.9648 20.4623 14.9648C20.6702 14.9648 20.864 15.0041 21.0436 15.0828C21.2234 15.1614 21.375 15.2739 21.4983 15.4203C21.6217 15.5666 21.7044 15.7398 21.7466 15.9398L21.0225 16.1007C20.9803 15.9578 20.9063 15.8489 20.8005 15.7739C20.6983 15.6953 20.5785 15.656 20.4411 15.656C20.346 15.656 20.2596 15.6757 20.1821 15.7148C20.1081 15.7507 20.0482 15.8023 20.0024 15.8703C19.9601 15.9346 19.939 16.0078 19.939 16.0898C19.939 16.2148 19.9865 16.3114 20.0816 16.3791C20.1769 16.4435 20.3177 16.4971 20.5045 16.5398L20.6736 16.5773C21.0577 16.6632 21.3414 16.7989 21.5246 16.9846C21.7114 17.1703 21.8049 17.4078 21.8049 17.6971C21.8049 17.8791 21.7697 18.0453 21.6991 18.1953C21.6322 18.3453 21.537 18.4757 21.4136 18.5864C21.2903 18.6971 21.1459 18.7828 20.9803 18.8435C20.8146 18.9007 20.6332 18.9291 20.4359 18.9291ZM22.3082 18.8489V15.0453H24.6075V15.7416H23.0747V16.6791H24.4384V17.3703H23.0747V18.8489H22.3082ZM25.1782 18.8489V15.0453H27.5304V15.7257H25.9394V16.556H27.3612V17.2364H25.9394V18.1685H27.5832V18.8489H25.1782ZM28.2134 18.8489V15.0453H29.4185C29.7251 15.0453 29.9894 15.0953 30.2114 15.1953C30.437 15.2916 30.6096 15.4328 30.7294 15.6185C30.8492 15.8007 30.9091 16.0166 30.9091 16.2666C30.9091 16.4132 30.8826 16.5541 30.8299 16.6898C30.777 16.8221 30.703 16.9435 30.6079 17.0541C30.5126 17.1614 30.3982 17.2507 30.2643 17.3221L31.1153 18.8489H30.2484L29.5771 17.531C29.5102 17.5346 29.438 17.5364 29.3604 17.5364C29.2476 17.5364 29.1243 17.5257 28.9904 17.5041V18.8489H28.2134ZM28.9904 15.7203V16.8398C29.0573 16.8507 29.1243 16.8596 29.1913 16.8666C29.2582 16.8703 29.3286 16.8721 29.4026 16.8721C29.6282 16.8721 29.8026 16.8221 29.926 16.7221C30.0493 16.6185 30.111 16.4757 30.111 16.2935C30.111 16.1114 30.0493 15.9703 29.926 15.8703C29.8026 15.7703 29.6282 15.7203 29.4026 15.7203H28.9904Z" fill="#4D4D4D"/>
</g>
<defs>
<clipPath id="clip0_48_2075">
<rect width="37" height="25" fill="white"/>
</clipPath>
</defs>
</svg>
