<svg width="38" height="25" viewBox="0 0 38 25" fill="none" xmlns="http://www.w3.org/2000/svg">
<path d="M31.6667 0.446289H5.42858C2.68031 0.446289 0.452393 2.64489 0.452393 5.357V19.6427C0.452393 22.3548 2.68031 24.5534 5.42858 24.5534H31.6667C34.415 24.5534 36.6429 22.3548 36.6429 19.6427V5.357C36.6429 2.64489 34.415 0.446289 31.6667 0.446289Z" fill="white" stroke="#D9D9D9" strokeWidth="0.642857"/>
<path fill-rule="evenodd" clip-rule="evenodd" d="M23.5037 19.5897C27.4981 19.5897 30.736 16.3703 30.736 12.3991C30.736 8.42784 27.4981 5.2085 23.5037 5.2085C21.7137 5.2085 20.0754 5.85511 18.8126 6.92622C17.5497 5.85511 15.9115 5.2085 14.1214 5.2085C10.1272 5.2085 6.88916 8.42784 6.88916 12.3991C6.88916 16.3704 10.1272 19.5897 14.1214 19.5897C15.9115 19.5897 17.5497 18.9431 18.8126 17.872C20.0754 18.9431 21.7137 19.5897 23.5037 19.5897Z" fill="#ED0006"/>
<path fill-rule="evenodd" clip-rule="evenodd" d="M18.8125 17.872C20.3675 16.5531 21.3536 14.5906 21.3536 12.3991C21.3536 10.2076 20.3675 8.24512 18.8125 6.92622C20.0754 5.85511 21.7136 5.2085 23.5037 5.2085C27.498 5.2085 30.7359 8.42784 30.7359 12.3991C30.7359 16.3703 27.498 19.5897 23.5037 19.5897C21.7136 19.5897 20.0754 18.9431 18.8125 17.872Z" fill="#F9A000"/>
<path fill-rule="evenodd" clip-rule="evenodd" d="M18.8127 17.872C20.3676 16.5531 21.3536 14.5906 21.3536 12.3991C21.3536 10.2076 20.3676 8.24516 18.8127 6.92627C17.2576 8.24516 16.2716 10.2076 16.2716 12.3991C16.2716 14.5906 17.2576 16.5531 18.8127 17.872Z" fill="#FF5E00"/>
</svg>
