<svg width="85" height="15" viewBox="0 0 85 15" fill="none" xmlns="http://www.w3.org/2000/svg">
<path d="M8.2561 10.7617L12.0809 13.0702L11.0659 8.7193L14.4451 5.79189L9.99522 5.41436L8.2561 1.31104L6.51699 5.41436L2.06708 5.79189L5.44629 8.7193L4.43129 13.0702L8.2561 10.7617Z" fill="#F8A401"/>
<path d="M25.5854 10.7617L29.4102 13.0702L28.3952 8.7193L31.7744 5.79189L27.3245 5.41436L25.5854 1.31104L23.8463 5.41436L19.3964 5.79189L22.7756 8.7193L21.7606 13.0702L25.5854 10.7617Z" fill="#F8A401"/>
<path d="M42.9146 10.7617L46.7395 13.0702L45.7245 8.7193L49.1037 5.79189L44.6538 5.41436L42.9146 1.31104L41.1755 5.41436L36.7256 5.79189L40.1048 8.7193L39.0898 13.0702L42.9146 10.7617Z" fill="#F8A401"/>
<path d="M60.2439 10.7617L64.0687 13.0702L63.0537 8.7193L66.4329 5.79189L61.983 5.41436L60.2439 1.31104L58.5048 5.41436L54.0549 5.79189L57.4341 8.7193L56.4191 13.0702L60.2439 10.7617Z" fill="#F8A401"/>
<path d="M77.5732 10.7617L81.398 13.0702L80.383 8.7193L83.7622 5.79189L79.3123 5.41436L77.5732 1.31104L75.8341 5.41436L71.3842 5.79189L74.7634 8.7193L73.7484 13.0702L77.5732 10.7617Z" fill="#F8A401"/>
</svg>
