<svg width="37" height="25" viewBox="0 0 37 25" fill="none" xmlns="http://www.w3.org/2000/svg">
<g clipPath="url(#clip0_48_2093)">
<path d="M31.7137 0.446289H5.28517C2.60923 0.446289 0.439941 2.64489 0.439941 5.357V19.6427C0.439941 22.3548 2.60923 24.5534 5.28517 24.5534H31.7137C34.3896 24.5534 36.5589 22.3548 36.5589 19.6427V5.357C36.5589 2.64489 34.3896 0.446289 31.7137 0.446289Z" fill="white" stroke="#D9D9D9" strokeWidth="0.642857"/>
<path d="M18.4466 10.8772C18.4317 12.1309 19.4889 12.8305 20.2853 13.2465C21.1034 13.6733 21.3783 13.947 21.375 14.3287C21.3689 14.9128 20.7224 15.1706 20.1174 15.1806C19.0618 15.1981 18.4481 14.8751 17.9602 14.6308L17.5799 16.5381C18.0695 16.7799 18.9759 16.9907 19.9159 17C22.1223 17 23.5658 15.8325 23.5736 14.0223C23.5823 11.725 20.6092 11.5978 20.6296 10.5709C20.6366 10.2596 20.9137 9.92731 21.5211 9.84283C21.8217 9.80015 22.6516 9.76749 23.5924 10.2319L23.9617 8.38659C23.4557 8.18911 22.8054 8 21.9958 8C19.919 8 18.4584 9.18341 18.4466 10.8772ZM27.5101 8.15895C27.1072 8.15895 26.7677 8.41087 26.6162 8.79747L23.4644 16.8645H25.6692L26.1079 15.5647H28.8022L29.0567 16.8645H31L29.3042 8.15895H27.5101ZM27.8186 10.5106L28.4548 13.7796H26.7122L27.8186 10.5106ZM15.7733 8.15906L14.0354 16.8643H16.1364L17.8736 8.15884L15.7733 8.15906ZM12.6652 8.15906L10.4784 14.0843L9.59377 9.04612C9.48998 8.48371 9.08007 8.15895 8.62487 8.15895H5.05007L5 8.41174C5.73389 8.58245 6.56772 8.85778 7.07289 9.15238C7.38205 9.33234 7.4702 9.48966 7.57177 9.9173L9.24724 16.8645H11.4675L14.8715 8.15895L12.6652 8.15906Z" fill="url(#paint0_linear_48_2093)"/>
</g>
<defs>
<linearGradient id="paint0_linear_48_2093" x1="1200.32" y1="35.054" x2="1228.25" y2="-889.15" gradientUnits="userSpaceOnUse">
<stop stop-color="#222357"/>
<stop offset="1" stop-color="#254AA5"/>
</linearGradient>
<clipPath id="clip0_48_2093">
<rect width="37" height="25" fill="white"/>
</clipPath>
</defs>
</svg>
