<svg width="25" height="25" viewBox="0 0 25 25" fill="none" xmlns="http://www.w3.org/2000/svg">
<g clipPath="url(#clip0_263_2261)">
<path d="M24.1581 12.1875C24.1581 5.56013 18.7855 0.1875 12.1581 0.1875C5.53077 0.1875 0.158142 5.56003 0.158142 12.1875C0.158142 18.177 4.54639 23.1415 10.2831 24.0417V15.6563H7.23627V12.1875H10.2831V9.54375C10.2831 6.53625 12.0747 4.875 14.8157 4.875C16.1286 4.875 17.5019 5.10938 17.5019 5.10938V8.0625H15.9888C14.498 8.0625 14.0331 8.98753 14.0331 9.93656V12.1875H17.3613L16.8292 15.6563H14.0331V24.0417C19.7699 23.1415 24.1581 18.1771 24.1581 12.1875Z" fill="#1877F2"/>
<path d="M16.8292 15.6562L17.3613 12.1875H14.0331V9.93656C14.0331 8.98744 14.498 8.0625 15.9888 8.0625H17.5019V5.10938C17.5019 5.10938 16.1286 4.875 14.8157 4.875C12.0747 4.875 10.2831 6.53625 10.2831 9.54375V12.1875H7.23627V15.6562H10.2831V24.0417C10.9034 24.1389 11.5303 24.1877 12.1581 24.1875C12.786 24.1877 13.4129 24.1389 14.0331 24.0417V15.6562H16.8292Z" fill="white"/>
</g>
<defs>
<clipPath id="clip0_263_2261">
<rect width="24" height="24" fill="white" transform="translate(0.158142 0.1875)"/>
</clipPath>
</defs>
</svg>
