<svg width="25" height="25" viewBox="0 0 25 25" fill="none" xmlns="http://www.w3.org/2000/svg">
<g clipPath="url(#clip0_263_2264)">
<path d="M18.5331 0.1875H5.78314C2.67654 0.1875 0.158142 2.7059 0.158142 5.8125V18.5625C0.158142 21.6691 2.67654 24.1875 5.78314 24.1875H18.5331C21.6397 24.1875 24.1581 21.6691 24.1581 18.5625V5.8125C24.1581 2.7059 21.6397 0.1875 18.5331 0.1875Z" fill="url(#paint0_radial_263_2264)"/>
<path d="M18.5331 0.1875H5.78314C2.67654 0.1875 0.158142 2.7059 0.158142 5.8125V18.5625C0.158142 21.6691 2.67654 24.1875 5.78314 24.1875H18.5331C21.6397 24.1875 24.1581 21.6691 24.1581 18.5625V5.8125C24.1581 2.7059 21.6397 0.1875 18.5331 0.1875Z" fill="url(#paint1_radial_263_2264)"/>
<path d="M12.159 2.8125C9.61292 2.8125 9.29333 2.82366 8.29339 2.86913C7.29533 2.91488 6.61405 3.07284 6.01799 3.30469C5.4013 3.54412 4.87827 3.86447 4.3572 4.38572C3.83567 4.90687 3.51533 5.42991 3.27514 6.04631C3.04264 6.64256 2.88449 7.32412 2.83958 8.32172C2.79486 9.32175 2.78314 9.64144 2.78314 12.1876C2.78314 14.7338 2.79439 15.0523 2.83977 16.0522C2.8857 17.0503 3.04367 17.7316 3.27533 18.3277C3.51495 18.9443 3.8353 19.4674 4.35655 19.9884C4.87752 20.51 5.40055 20.8311 6.01677 21.0705C6.6133 21.3023 7.29467 21.4603 8.29255 21.5061C9.29258 21.5515 9.61189 21.5627 12.1579 21.5627C14.7042 21.5627 15.0228 21.5515 16.0227 21.5061C17.0208 21.4603 17.7028 21.3023 18.2993 21.0705C18.9157 20.8311 19.438 20.51 19.9589 19.9884C20.4804 19.4674 20.8007 18.9443 21.041 18.3279C21.2714 17.7316 21.4296 17.0501 21.4765 16.0524C21.5214 15.0525 21.5331 14.7338 21.5331 12.1876C21.5331 9.64144 21.5214 9.32194 21.4765 8.32191C21.4296 7.32384 21.2714 6.64266 21.041 6.04659C20.8007 5.42991 20.4804 4.90687 19.9589 4.38572C19.4375 3.86428 18.9159 3.54394 18.2988 3.30478C17.7011 3.07284 17.0195 2.91478 16.0214 2.86913C15.0214 2.82366 14.703 2.8125 12.1561 2.8125H12.159ZM11.318 4.50197C11.5676 4.50159 11.8461 4.50197 12.159 4.50197C14.6622 4.50197 14.9588 4.51097 15.9473 4.55588C16.8614 4.59769 17.3575 4.75041 17.688 4.87875C18.1255 5.04863 18.4374 5.25178 18.7654 5.58C19.0935 5.90813 19.2965 6.22059 19.4669 6.65812C19.5952 6.98812 19.7481 7.48425 19.7898 8.39831C19.8347 9.38663 19.8444 9.68344 19.8444 12.1854C19.8444 14.6874 19.8347 14.9843 19.7898 15.9726C19.748 16.8866 19.5952 17.3827 19.4669 17.7128C19.297 18.1504 19.0935 18.4619 18.7654 18.7898C18.4372 19.118 18.1257 19.321 17.688 19.491C17.3579 19.6199 16.8614 19.7723 15.9473 19.8141C14.959 19.859 14.6622 19.8687 12.159 19.8687C9.65567 19.8687 9.35895 19.859 8.37074 19.8141C7.45667 19.7719 6.96055 19.6192 6.6298 19.4908C6.19236 19.3208 5.8798 19.1178 5.55167 18.7897C5.22355 18.4615 5.02049 18.1498 4.85014 17.7121C4.7218 17.382 4.56889 16.8859 4.52727 15.9718C4.48236 14.9835 4.47336 14.6867 4.47336 12.1831C4.47336 9.67959 4.48236 9.38428 4.52727 8.39597C4.56908 7.48191 4.7218 6.98578 4.85014 6.65531C5.02011 6.21778 5.22355 5.90531 5.55177 5.57719C5.87989 5.24906 6.19236 5.04591 6.62989 4.87566C6.96036 4.74675 7.45667 4.59441 8.37074 4.55241C9.23558 4.51331 9.57074 4.50159 11.318 4.49962V4.50197ZM17.1634 6.05859C16.5423 6.05859 16.0384 6.56203 16.0384 7.18322C16.0384 7.80431 16.5423 8.30822 17.1634 8.30822C17.7845 8.30822 18.2884 7.80431 18.2884 7.18322C18.2884 6.56213 17.7845 6.05822 17.1634 6.05822V6.05859ZM12.159 7.37306C9.50024 7.37306 7.34455 9.52875 7.34455 12.1876C7.34455 14.8464 9.50024 17.0011 12.159 17.0011C14.8178 17.0011 16.9728 14.8464 16.9728 12.1876C16.9728 9.52884 14.8176 7.37306 12.1588 7.37306H12.159ZM12.159 9.06253C13.8848 9.06253 15.284 10.4616 15.284 12.1876C15.284 13.9134 13.8848 15.3127 12.159 15.3127C10.433 15.3127 9.03402 13.9134 9.03402 12.1876C9.03402 10.4616 10.433 9.06253 12.159 9.06253Z" fill="white"/>
</g>
<defs>
<radialGradient id="paint0_radial_263_2264" cx="0" cy="0" r="1" gradientUnits="userSpaceOnUse" gradientTransform="translate(6.53314 26.036) rotate(-90) scale(23.7858 22.1227)">
<stop stop-color="#FFDD55"/>
<stop offset="0.1" stop-color="#FFDD55"/>
<stop offset="0.5" stop-color="#FF543E"/>
<stop offset="1" stop-color="#C837AB"/>
</radialGradient>
<radialGradient id="paint1_radial_263_2264" cx="0" cy="0" r="1" gradientUnits="userSpaceOnUse" gradientTransform="translate(-3.86195 1.91634) rotate(78.681) scale(10.6324 43.827)">
<stop stop-color="#3771C8"/>
<stop offset="0.128" stop-color="#3771C8"/>
<stop offset="1" stop-color="#6600FF" stop-opacity="0"/>
</radialGradient>
<clipPath id="clip0_263_2264">
<rect width="24" height="24" fill="white" transform="translate(0.158142 0.1875)"/>
</clipPath>
</defs>
</svg>
