<svg width="25" height="25" viewBox="0 0 25 25" fill="none" xmlns="http://www.w3.org/2000/svg">
<g clipPath="url(#clip0_263_2257)">
<path d="M0.852375 12.0438C0.851817 14.0603 1.3787 16.0292 2.38056 17.7646L0.756561 23.6941L6.82465 22.1031C8.50301 23.0167 10.3835 23.4955 12.2944 23.4956H12.2994C18.6078 23.4956 23.743 18.3623 23.7457 12.0528C23.7469 8.99542 22.5573 6.12045 20.396 3.95747C18.2351 1.79468 15.3611 0.602958 12.299 0.601562C5.98986 0.601562 0.855073 5.73459 0.852468 12.0438" fill="url(#paint0_linear_263_2257)"/>
<path d="M0.443712 12.0402C0.443061 14.1292 0.988828 16.1685 2.02641 17.9661L0.344177 24.1082L6.62985 22.4601C8.36176 23.4043 10.3117 23.9022 12.2959 23.9029H12.301C18.8357 23.9029 24.1553 18.585 24.1581 12.0496C24.1592 8.88238 22.9269 5.90406 20.6884 3.66359C18.4496 1.42341 15.4728 0.188802 12.301 0.1875C5.7652 0.1875 0.446317 5.50471 0.443712 12.0402ZM4.18697 17.6565L3.95227 17.284C2.96567 15.7152 2.44492 13.9024 2.44567 12.0409C2.44781 6.6088 6.86864 2.18936 12.3047 2.18936C14.9373 2.19048 17.4113 3.21671 19.2722 5.07866C21.1329 6.9408 22.1568 9.41615 22.1562 12.0489C22.1538 17.481 17.7328 21.901 12.301 21.901H12.2971C10.5285 21.9001 8.79385 21.4251 7.28111 20.5275L6.92111 20.314L3.19106 21.292L4.18697 17.6564V17.6565Z" fill="url(#paint1_linear_263_2257)"/>
<path d="M9.33749 7.08496C9.11553 6.59166 8.88195 6.58171 8.67088 6.57306C8.49805 6.56561 8.30046 6.56617 8.10307 6.56617C7.90549 6.56617 7.58446 6.6405 7.31312 6.93678C7.04149 7.23333 6.27609 7.94999 6.27609 9.40757C6.27609 10.8652 7.33777 12.2739 7.48577 12.4718C7.63395 12.6692 9.53535 15.7561 12.5467 16.9437C15.0494 17.9305 15.5587 17.7343 16.1019 17.6848C16.6451 17.6355 17.8548 16.9683 18.1016 16.2765C18.3486 15.5848 18.3486 14.9918 18.2745 14.8679C18.2005 14.7445 18.0029 14.6704 17.7066 14.5223C17.4102 14.3741 15.9537 13.6573 15.6821 13.5585C15.4105 13.4597 15.213 13.4104 15.0154 13.707C14.8179 14.0032 14.2505 14.6704 14.0776 14.8679C13.9048 15.066 13.7319 15.0906 13.4357 14.9424C13.1393 14.7938 12.1851 14.4813 11.0531 13.4721C10.1724 12.6868 9.57777 11.7171 9.40493 11.4204C9.23209 11.1242 9.38642 10.9637 9.53498 10.816C9.66809 10.6833 9.83135 10.4701 9.97963 10.2971C10.1273 10.1241 10.1767 10.0007 10.2754 9.8031C10.3743 9.60533 10.3248 9.43231 10.2509 9.28413C10.1767 9.13594 9.60093 7.67073 9.33749 7.08496Z" fill="white"/>
</g>
<defs>
<linearGradient id="paint0_linear_263_2257" x1="1150.21" y1="2309.86" x2="1150.21" y2="0.601562" gradientUnits="userSpaceOnUse">
<stop stop-color="#1FAF38"/>
<stop offset="1" stop-color="#60D669"/>
</linearGradient>
<linearGradient id="paint1_linear_263_2257" x1="1191.04" y1="2392.25" x2="1191.04" y2="0.1875" gradientUnits="userSpaceOnUse">
<stop stop-color="#F9F9F9"/>
<stop offset="1" stop-color="white"/>
</linearGradient>
<clipPath id="clip0_263_2257">
<rect width="23.814" height="24" fill="white" transform="translate(0.344177 0.1875)"/>
</clipPath>
</defs>
</svg>
