<svg width="35" height="25" viewBox="0 0 35 25" fill="none" xmlns="http://www.w3.org/2000/svg">
<g clipPath="url(#clip0_263_2269)">
<path d="M33.5376 3.93083C33.3419 3.20731 32.9599 2.54769 32.4299 2.01767C31.9 1.48765 31.2404 1.10572 30.5168 0.9099C27.868 0.1875 17.2075 0.1875 17.2075 0.1875C17.2075 0.1875 6.54643 0.209367 3.89763 0.931767C3.1741 1.12759 2.51449 1.50955 1.98449 2.03959C1.45449 2.56964 1.0726 3.22928 0.876834 3.95283C0.0756344 8.65923 -0.235166 15.8307 0.898834 20.3488C1.09462 21.0724 1.47652 21.732 2.00652 22.262C2.53652 22.792 3.19612 23.174 3.91963 23.3698C6.56843 24.0922 17.2292 24.0922 17.2292 24.0922C17.2292 24.0922 27.8899 24.0922 30.5386 23.3698C31.2621 23.174 31.9217 22.792 32.4518 22.262C32.9818 21.732 33.3637 21.0724 33.5595 20.3488C34.4046 15.6358 34.665 8.4687 33.5376 3.93083Z" fill="#FF0000"/>
<path d="M13.8143 17.2621L22.658 12.1397L13.8143 7.01733V17.2621Z" fill="white"/>
</g>
<defs>
<clipPath id="clip0_263_2269">
<rect width="34.1333" height="24" fill="white" transform="translate(0.158142 0.1875)"/>
</clipPath>
</defs>
</svg>
